<svg xmlns="http://www.w3.org/2000/svg" xmlns:xlink="http://www.w3.org/1999/xlink" contentStyleType="text/css" data-diagram-type="DESCRIPTION" height="693px" preserveAspectRatio="none" style="width:1213px;height:693px;background:#FFFFFF;" version="1.1" viewBox="0 0 1213 693" width="1213px" zoomAndPan="magnify"><defs/><g><!--cluster Frontend--><g class="cluster" data-entity="Frontend" data-source-line="6" data-uid="ent0002" id="cluster_Frontend"><path d="M266.5,6 L574.6523,6 A3.75,3.75 0 0 1 577.1523,8.5 L584.1523,28.2969 L906.5,28.2969 A2.5,2.5 0 0 1 909,30.7969 L909,100.79 A2.5,2.5 0 0 1 906.5,103.29 L266.5,103.29 A2.5,2.5 0 0 1 264,100.79 L264,8.5 A2.5,2.5 0 0 1 266.5,6" fill="none" style="stroke:#000000;stroke-width:1.5;"/><line style="stroke:#000000;stroke-width:1.5;" x1="264" x2="584.1523" y1="28.2969" y2="28.2969"/><text fill="#000000" font-family="sans-serif" font-size="14" font-weight="bold" lengthAdjust="spacing" textLength="307.1523" x="268" y="20.9951">Presentation Layer (Angular Frontend)</text></g><!--cluster Backend--><g class="cluster" data-entity="Backend" data-source-line="16" data-uid="ent0007" id="cluster_Backend"><path d="M185.5,152.29 L477.4922,152.29 A3.75,3.75 0 0 1 479.9922,154.79 L486.9922,174.5869 L1203.5,174.5869 A2.5,2.5 0 0 1 1206,177.0869 L1206,415.39 A2.5,2.5 0 0 1 1203.5,417.89 L185.5,417.89 A2.5,2.5 0 0 1 183,415.39 L183,154.79 A2.5,2.5 0 0 1 185.5,152.29" fill="none" style="stroke:#000000;stroke-width:1.5;"/><line style="stroke:#000000;stroke-width:1.5;" x1="183" x2="486.9922" y1="174.5869" y2="174.5869"/><text fill="#000000" font-family="sans-serif" font-size="14" font-weight="bold" lengthAdjust="spacing" textLength="290.9922" x="187" y="167.2851">Application Layer (C# Backend / API)</text></g><!--cluster Core Domain Services--><g class="cluster" data-entity="Core Domain Services" data-source-line="20" data-uid="ent0009" id="cluster_Core Domain Services"><path d="M209.5,296.59 L383.1143,296.59 A3.75,3.75 0 0 1 385.6143,299.09 L392.6143,318.8869 L752.5,318.8869 A2.5,2.5 0 0 1 755,321.3869 L755,391.39 A2.5,2.5 0 0 1 752.5,393.89 L209.5,393.89 A2.5,2.5 0 0 1 207,391.39 L207,299.09 A2.5,2.5 0 0 1 209.5,296.59" fill="none" style="stroke:#000000;stroke-width:1.5;"/><line style="stroke:#000000;stroke-width:1.5;" x1="207" x2="392.6143" y1="318.8869" y2="318.8869"/><text fill="#000000" font-family="sans-serif" font-size="14" font-weight="bold" lengthAdjust="spacing" textLength="172.6143" x="211" y="311.5851">Core Domain Services</text></g><!--cluster Cross-Cutting Services--><g class="cluster" data-entity="Cross-Cutting Services" data-source-line="26" data-uid="ent0013" id="cluster_Cross-Cutting Services"><path d="M781.5,296.59 L961.5947,296.59 A3.75,3.75 0 0 1 964.0947,299.09 L971.0947,318.8869 L1179.5,318.8869 A2.5,2.5 0 0 1 1182,321.3869 L1182,391.39 A2.5,2.5 0 0 1 1179.5,393.89 L781.5,393.89 A2.5,2.5 0 0 1 779,391.39 L779,299.09 A2.5,2.5 0 0 1 781.5,296.59" fill="none" style="stroke:#000000;stroke-width:1.5;"/><line style="stroke:#000000;stroke-width:1.5;" x1="779" x2="971.0947" y1="318.8869" y2="318.8869"/><text fill="#000000" font-family="sans-serif" font-size="14" font-weight="bold" lengthAdjust="spacing" textLength="179.0947" x="783" y="311.5851">Cross-Cutting Services</text></g><!--cluster DataExternal--><g class="cluster" data-entity="DataExternal" data-source-line="35" data-uid="ent0016" id="cluster_DataExternal"><path d="M8.5,466.89 L183.3311,466.89 A3.75,3.75 0 0 1 185.8311,469.39 L192.8311,489.1869 L857.5,489.1869 A2.5,2.5 0 0 1 860,491.6869 L860,683.98 A2.5,2.5 0 0 1 857.5,686.48 L8.5,686.48 A2.5,2.5 0 0 1 6,683.98 L6,469.39 A2.5,2.5 0 0 1 8.5,466.89" fill="none" style="stroke:#000000;stroke-width:1.5;"/><line style="stroke:#000000;stroke-width:1.5;" x1="6" x2="192.8311" y1="489.1869" y2="489.1869"/><text fill="#000000" font-family="sans-serif" font-size="14" font-weight="bold" lengthAdjust="spacing" textLength="173.8311" x="10" y="481.8851">Data &amp; External Layer</text></g><!--entity ClientUI--><g class="entity" data-entity="ClientUI" data-source-line="7" data-uid="ent0003" id="entity_ClientUI"><rect fill="#F1F1F1" height="46.2969" rx="2.5" ry="2.5" style="stroke:#181818;stroke-width:0.5;" width="125.7021" x="280.15" y="41"/><rect fill="#F1F1F1" height="10" style="stroke:#181818;stroke-width:0.5;" width="15" x="385.8521" y="46"/><rect fill="#F1F1F1" height="2" style="stroke:#181818;stroke-width:0.5;" width="4" x="383.8521" y="48"/><rect fill="#F1F1F1" height="2" style="stroke:#181818;stroke-width:0.5;" width="4" x="383.8521" y="52"/><text fill="#000000" font-family="sans-serif" font-size="14" lengthAdjust="spacing" textLength="85.7021" x="295.15" y="73.9951">Client Portal</text></g><!--entity LawyerUI--><g class="entity" data-entity="LawyerUI" data-source-line="8" data-uid="ent0004" id="entity_LawyerUI"><rect fill="#F1F1F1" height="46.2969" rx="2.5" ry="2.5" style="stroke:#181818;stroke-width:0.5;" width="135.6553" x="441.17" y="41"/><rect fill="#F1F1F1" height="10" style="stroke:#181818;stroke-width:0.5;" width="15" x="556.8253" y="46"/><rect fill="#F1F1F1" height="2" style="stroke:#181818;stroke-width:0.5;" width="4" x="554.8253" y="48"/><rect fill="#F1F1F1" height="2" style="stroke:#181818;stroke-width:0.5;" width="4" x="554.8253" y="52"/><text fill="#000000" font-family="sans-serif" font-size="14" lengthAdjust="spacing" textLength="95.6553" x="456.17" y="73.9951">Lawyer Portal</text></g><!--entity AdminUI--><g class="entity" data-entity="AdminUI" data-source-line="9" data-uid="ent0005" id="entity_AdminUI"><rect fill="#F1F1F1" height="46.2969" rx="2.5" ry="2.5" style="stroke:#181818;stroke-width:0.5;" width="130.0361" x="611.98" y="41"/><rect fill="#F1F1F1" height="10" style="stroke:#181818;stroke-width:0.5;" width="15" x="722.0161" y="46"/><rect fill="#F1F1F1" height="2" style="stroke:#181818;stroke-width:0.5;" width="4" x="720.0161" y="48"/><rect fill="#F1F1F1" height="2" style="stroke:#181818;stroke-width:0.5;" width="4" x="720.0161" y="52"/><text fill="#000000" font-family="sans-serif" font-size="14" lengthAdjust="spacing" textLength="90.0361" x="626.98" y="73.9951">Admin Portal</text></g><!--entity HomeUI--><g class="entity" data-entity="HomeUI" data-source-line="10" data-uid="ent0006" id="entity_HomeUI"><rect fill="#F1F1F1" height="46.2969" rx="2.5" ry="2.5" style="stroke:#181818;stroke-width:0.5;" width="116.3096" x="776.85" y="41"/><rect fill="#F1F1F1" height="10" style="stroke:#181818;stroke-width:0.5;" width="15" x="873.1596" y="46"/><rect fill="#F1F1F1" height="2" style="stroke:#181818;stroke-width:0.5;" width="4" x="871.1596" y="48"/><rect fill="#F1F1F1" height="2" style="stroke:#181818;stroke-width:0.5;" width="4" x="871.1596" y="52"/><text fill="#000000" font-family="sans-serif" font-size="14" lengthAdjust="spacing" textLength="76.3096" x="791.85" y="73.9951">Homepage</text></g><!--entity API_GW--><g class="entity" data-entity="API_GW" data-source-line="18" data-uid="ent0008" id="entity_API_GW"><rect fill="#F1F1F1" height="46.2969" rx="2.5" ry="2.5" style="stroke:#181818;stroke-width:0.5;" width="128.4434" x="528.78" y="187.29"/><rect fill="#F1F1F1" height="10" style="stroke:#181818;stroke-width:0.5;" width="15" x="637.2234" y="192.29"/><rect fill="#F1F1F1" height="2" style="stroke:#181818;stroke-width:0.5;" width="4" x="635.2234" y="194.29"/><rect fill="#F1F1F1" height="2" style="stroke:#181818;stroke-width:0.5;" width="4" x="635.2234" y="198.29"/><text fill="#000000" font-family="sans-serif" font-size="14" lengthAdjust="spacing" textLength="88.4434" x="543.78" y="220.2851">API Gateway</text></g><!--entity USER_SVC--><g class="entity" data-entity="USER_SVC" data-source-line="21" data-uid="ent0010" id="entity_USER_SVC"><rect fill="#F1F1F1" height="46.2969" rx="2.5" ry="2.5" style="stroke:#181818;stroke-width:0.5;" width="128.1016" x="425.95" y="331.59"/><rect fill="#F1F1F1" height="10" style="stroke:#181818;stroke-width:0.5;" width="15" x="534.0516" y="336.59"/><rect fill="#F1F1F1" height="2" style="stroke:#181818;stroke-width:0.5;" width="4" x="532.0516" y="338.59"/><rect fill="#F1F1F1" height="2" style="stroke:#181818;stroke-width:0.5;" width="4" x="532.0516" y="342.59"/><text fill="#000000" font-family="sans-serif" font-size="14" lengthAdjust="spacing" textLength="88.1016" x="440.95" y="364.5851">User Service</text></g><!--entity PROCESS_SVC--><g class="entity" data-entity="PROCESS_SVC" data-source-line="22" data-uid="ent0011" id="entity_PROCESS_SVC"><rect fill="#F1F1F1" height="46.2969" rx="2.5" ry="2.5" style="stroke:#181818;stroke-width:0.5;" width="149.8535" x="589.07" y="331.59"/><rect fill="#F1F1F1" height="10" style="stroke:#181818;stroke-width:0.5;" width="15" x="718.9235" y="336.59"/><rect fill="#F1F1F1" height="2" style="stroke:#181818;stroke-width:0.5;" width="4" x="716.9235" y="338.59"/><rect fill="#F1F1F1" height="2" style="stroke:#181818;stroke-width:0.5;" width="4" x="716.9235" y="342.59"/><text fill="#000000" font-family="sans-serif" font-size="14" lengthAdjust="spacing" textLength="109.8535" x="604.07" y="364.5851">Process Service</text></g><!--entity DOC_SVC--><g class="entity" data-entity="DOC_SVC" data-source-line="23" data-uid="ent0012" id="entity_DOC_SVC"><rect fill="#F1F1F1" height="46.2969" rx="2.5" ry="2.5" style="stroke:#181818;stroke-width:0.5;" width="168.7207" x="222.64" y="331.59"/><rect fill="#F1F1F1" height="10" style="stroke:#181818;stroke-width:0.5;" width="15" x="371.3607" y="336.59"/><rect fill="#F1F1F1" height="2" style="stroke:#181818;stroke-width:0.5;" width="4" x="369.3607" y="338.59"/><rect fill="#F1F1F1" height="2" style="stroke:#181818;stroke-width:0.5;" width="4" x="369.3607" y="342.59"/><text fill="#000000" font-family="sans-serif" font-size="14" lengthAdjust="spacing" textLength="128.7207" x="237.64" y="364.5851">Document Service</text></g><!--entity AUTH--><g class="entity" data-entity="AUTH" data-source-line="27" data-uid="ent0014" id="entity_AUTH"><rect fill="#F1F1F1" height="46.2969" rx="2.5" ry="2.5" style="stroke:#181818;stroke-width:0.5;" width="129.0039" x="795.5" y="331.59"/><rect fill="#F1F1F1" height="10" style="stroke:#181818;stroke-width:0.5;" width="15" x="904.5039" y="336.59"/><rect fill="#F1F1F1" height="2" style="stroke:#181818;stroke-width:0.5;" width="4" x="902.5039" y="338.59"/><rect fill="#F1F1F1" height="2" style="stroke:#181818;stroke-width:0.5;" width="4" x="902.5039" y="342.59"/><text fill="#000000" font-family="sans-serif" font-size="14" lengthAdjust="spacing" textLength="89.0039" x="810.5" y="364.5851">Auth Service</text></g><!--entity COMM_SVC--><g class="entity" data-entity="COMM_SVC" data-source-line="28" data-uid="ent0015" id="entity_COMM_SVC"><rect fill="#F1F1F1" height="46.2969" rx="2.5" ry="2.5" style="stroke:#181818;stroke-width:0.5;" width="206.5371" x="959.73" y="331.59"/><rect fill="#F1F1F1" height="10" style="stroke:#181818;stroke-width:0.5;" width="15" x="1146.2671" y="336.59"/><rect fill="#F1F1F1" height="2" style="stroke:#181818;stroke-width:0.5;" width="4" x="1144.2671" y="338.59"/><rect fill="#F1F1F1" height="2" style="stroke:#181818;stroke-width:0.5;" width="4" x="1144.2671" y="342.59"/><text fill="#000000" font-family="sans-serif" font-size="14" lengthAdjust="spacing" textLength="166.5371" x="974.73" y="364.5851">Communication Service</text></g><!--entity PG_DB--><g class="entity" data-entity="PG_DB" data-source-line="36" data-uid="ent0017" id="entity_PG_DB"><path d="M431.47,512.39 C431.47,502.39 536.9988,502.39 536.9988,502.39 C536.9988,502.39 642.5276,502.39 642.5276,512.39 L642.5276,537.6869 C642.5276,547.6869 536.9988,547.6869 536.9988,547.6869 C536.9988,547.6869 431.47,547.6869 431.47,537.6869 L431.47,512.39" fill="#F1F1F1" style="stroke:#181818;stroke-width:0.5;"/><path d="M431.47,512.39 C431.47,522.39 536.9988,522.39 536.9988,522.39 C536.9988,522.39 642.5276,522.39 642.5276,512.39" fill="none" style="stroke:#181818;stroke-width:0.5;"/><text fill="#000000" font-family="sans-serif" font-size="14" lengthAdjust="spacing" textLength="191.0576" x="441.47" y="539.3851">PostgreSQL (Relational DB)</text></g><!--entity QDRANT_DB--><g class="entity" data-entity="QDRANT_DB" data-source-line="37" data-uid="ent0018" id="entity_QDRANT_DB"><path d="M332.52,635.18 C332.52,625.18 432.9971,625.18 432.9971,625.18 C432.9971,625.18 533.4741,625.18 533.4741,635.18 L533.4741,660.4769 C533.4741,670.4769 432.9971,670.4769 432.9971,670.4769 C432.9971,670.4769 332.52,670.4769 332.52,660.4769 L332.52,635.18" fill="#F1F1F1" style="stroke:#181818;stroke-width:0.5;"/><path d="M332.52,635.18 C332.52,645.18 432.9971,645.18 432.9971,645.18 C432.9971,645.18 533.4741,645.18 533.4741,635.18" fill="none" style="stroke:#181818;stroke-width:0.5;"/><text fill="#000000" font-family="sans-serif" font-size="14" lengthAdjust="spacing" textLength="180.9541" x="342.52" y="662.1751">Qdrant (Vector/AI Search)</text></g><!--entity FILE_STORE--><g class="entity" data-entity="FILE_STORE" data-source-line="38" data-uid="ent0019" id="entity_FILE_STORE"><rect fill="#F1F1F1" height="36.2969" rx="35" ry="35" style="stroke:#181818;stroke-width:0.5;" width="179.3867" x="217.31" y="506.89"/><text fill="#000000" font-family="sans-serif" font-size="14" lengthAdjust="spacing" textLength="159.3867" x="227.31" y="529.8851">File Storage (Postgres)</text></g><!--entity CHATBOT--><g class="entity" data-entity="CHATBOT" data-source-line="39" data-uid="ent0020" id="entity_CHATBOT"><path d="M31.5233,511.9292 C34.882,506.0043 39.2934,504.5814 43.7882,510.7799 C45.932,505.6538 50.7331,504.5091 54.2994,509.2672 C58.4673,502.3207 62.525,502.9428 67.4206,508.5037 C72.0907,502.9595 76.5493,504.2758 80.0514,509.8326 C82.821,503.7025 86.5011,503.097 91.5307,507.3289 C94.3255,501.8946 99.7943,501.943 102.5641,507.3543 C106.2463,501.7584 112.047,501.132 115.186,507.9085 C119.8392,502.7411 123.3473,503.7598 126.3155,509.6105 C129.6811,503.2837 135.6079,503.2753 138.8426,509.7386 C141.6914,504.1609 146.8159,503.4829 150.546,508.7909 C154.9822,502.9889 161.2564,504.6972 163.8812,510.8171 C166.3686,505.4368 171.6449,505.9395 174.7431,510.1235 C181.7771,513.7412 182.6919,520.8913 176.5526,526.0096 C182.4761,530.7786 181.4887,538.055 174.2793,540.8064 C171.8766,548.0914 167.3341,548.625 162.0187,543.741 C158.6192,548.6324 154.6633,548.7342 150.9092,544.157 C147.4201,550.2755 143.1597,551.6632 138.4676,545.3622 C136.1499,552.2064 130.852,551.4111 126.7958,547.1972 C123.4777,553.2896 118.4963,553.1764 114.1541,548.3869 C111.8219,554.7624 107.4568,554.7564 103.0216,550.6124 C98.2299,556.8817 93.5665,555.5482 90.6196,548.8483 C86.4282,553.5687 80.7262,553.9051 78.3973,546.906 C73.4558,551.5893 69.6527,551.8414 66.8444,544.8035 C63.4674,550.4177 58.3197,549.6081 55.5977,544.1388 C51.9899,549.2111 46.3941,548.4558 43.6589,543.1363 C39.3225,548.1852 34.3827,548.1263 31.1317,541.9274 C22.9825,539.186 20.6707,533.9974 26.889,527.1351 C20.6431,520.3791 22.131,513.9191 31.5233,511.9292" fill="#F1F1F1" style="stroke:#181818;stroke-width:0.5;"/><text fill="#000000" font-family="sans-serif" font-size="14" lengthAdjust="spacing" textLength="130.0059" x="37" y="529.8851">AI Chatbot Service</text></g><!--entity EMAIL_SVC--><g class="entity" data-entity="EMAIL_SVC" data-source-line="40" data-uid="ent0021" id="entity_EMAIL_SVC"><path d="M686.8233,511.2758 C690.0234,505.3504 695.6672,504.6447 699.8725,510.1259 C703.5882,504.4737 707.959,502.6335 712.8815,508.7971 C717.2004,504.3613 720.6536,504.7594 723.9136,510.0039 C727.6674,501.7676 732.2519,501.8561 737.9463,508.1267 C742.1358,501.5576 746.5039,501.9905 750.4311,508.3795 C752.392,502.3938 757.6064,502.363 761.1904,506.6852 C766.7831,501.6658 771.558,501.1716 774.8181,509.1339 C778.6402,503.57 782.9851,503.7413 787.0139,508.8986 C791.0523,504.4361 795.3177,504.3261 798.5459,509.8355 C802.2112,502.904 808.5311,504.0585 811.9534,510.0868 C816.1848,503.2389 822.3004,504.6634 825.1764,511.4055 C829.2857,505.3542 833.5839,504.6773 837.9735,511.1183 C844.6423,514.3176 847.2814,521.6116 839.7976,526.4903 C845.6812,531.8502 844.7485,537.2894 837.6708,540.7108 C833.4181,546.4303 828.5127,548.3472 823.9265,541.0633 C821.1018,547.1402 817.1008,548.0209 812.7107,542.5889 C808.9018,550.1743 804.2823,550.3207 798.9091,544.1595 C795.3329,548.5146 790.7256,548.1439 788.0804,543.0883 C785.1746,550.3147 778.7939,549.5742 775.1361,543.8393 C771.1693,550.4686 766.3024,551.0722 761.1219,545.1997 C757.8668,551.0013 752.2155,550.4392 749.1254,545.0231 C745.3667,550.5987 740.4301,549.4384 737.7079,543.9532 C733.4452,549.6767 728.2975,549.8947 724.196,543.7694 C719.3221,548.5244 715.6975,548.0432 712.1416,542.2614 C708.7026,548.0643 702.2578,548.6144 698.5706,542.5451 C695.7372,547.2265 690.6745,547.0297 688.0777,542.2819 C677.9115,541.7197 672.8729,534.5331 679.4225,525.4006 C675.4976,517.7636 677.8023,512.1297 686.8233,511.2758" fill="#F1F1F1" style="stroke:#181818;stroke-width:0.5;"/><text fill="#000000" font-family="sans-serif" font-size="14" lengthAdjust="spacing" textLength="136.0557" x="692.97" y="529.8851">Email/SMS Provider</text></g><!--link ClientUI to API_GW--><g class="link" data-entity-1="ClientUI" data-entity-2="API_GW" data-source-line="48" data-uid="lnk22" id="link_ClientUI_API_GW"><path d="M358.09,87.61 C369.45,103.06 386.23,123.1 405,136.29 C442.4,162.57 484.7883,179.286 522.9783,191.106" fill="none" id="ClientUI-to-API_GW" style="stroke:#181818;stroke-width:1;"/><polygon fill="#181818" points="528.71,192.88,521.2951,186.3978,523.9335,191.4017,518.9297,194.0402,528.71,192.88" style="stroke:#181818;stroke-width:1;"/><text fill="#000000" font-family="sans-serif" font-size="13" lengthAdjust="spacing" textLength="102.8257" x="406" y="132.3569">REST / JSON API</text></g><!--link LawyerUI to API_GW--><g class="link" data-entity-1="LawyerUI" data-entity-2="API_GW" data-source-line="49" data-uid="lnk23" id="link_LawyerUI_API_GW"><path d="M510.59,87.68 C512.36,102.23 516.1,121.19 524,136.29 C534.2,155.78 546.6439,169.7591 561.1539,183.0391" fill="none" id="LawyerUI-to-API_GW" style="stroke:#181818;stroke-width:1;"/><polygon fill="#181818" points="565.58,187.09,561.6415,178.0629,561.8916,183.7143,556.2403,183.9644,565.58,187.09" style="stroke:#181818;stroke-width:1;"/><text fill="#000000" font-family="sans-serif" font-size="13" lengthAdjust="spacing" textLength="102.8257" x="525" y="132.3569">REST / JSON API</text></g><!--link AdminUI to API_GW--><g class="link" data-entity-1="AdminUI" data-entity-2="API_GW" data-source-line="50" data-uid="lnk24" id="link_AdminUI_API_GW"><path d="M663.88,87.69 C648.09,114.8 624.7893,154.835 609.0493,181.865" fill="none" id="AdminUI-to-API_GW" style="stroke:#181818;stroke-width:1;"/><polygon fill="#181818" points="606.03,187.05,614.0156,181.2854,608.5461,182.7292,607.1023,177.2597,606.03,187.05" style="stroke:#181818;stroke-width:1;"/><text fill="#000000" font-family="sans-serif" font-size="13" lengthAdjust="spacing" textLength="102.8257" x="645" y="132.3569">REST / JSON API</text></g><!--link HomeUI to API_GW--><g class="link" data-entity-1="HomeUI" data-entity-2="API_GW" data-source-line="51" data-uid="lnk25" id="link_HomeUI_API_GW"><path d="M813.72,87.69 C798.63,102.8 777.34,122.39 756,136.29 C724.68,156.7 692.3017,171.8488 660.9017,184.5588" fill="none" id="HomeUI-to-API_GW" style="stroke:#181818;stroke-width:1;"/><polygon fill="#181818" points="655.34,186.81,665.1833,187.1409,659.9747,184.934,662.1817,179.7254,655.34,186.81" style="stroke:#181818;stroke-width:1;"/><text fill="#000000" font-family="sans-serif" font-size="13" lengthAdjust="spacing" textLength="107.25" x="778" y="132.3569">Public endpoints</text></g><!--link API_GW to AUTH--><g class="link" data-entity-1="API_GW" data-entity-2="AUTH" data-source-line="54" data-uid="lnk26" id="link_API_GW_AUTH"><path d="M657.56,219.18 C696.55,226.16 745.91,239.26 784,263.59 C811.08,280.89 830.2738,305.8404 843.5838,326.4404" fill="none" id="API_GW-to-AUTH" style="stroke:#181818;stroke-width:1;"/><polygon fill="#181818" points="846.84,331.48,845.3155,321.7498,844.1265,327.2803,838.596,326.0914,846.84,331.48" style="stroke:#181818;stroke-width:1;"/><text fill="#000000" font-family="sans-serif" font-size="13" lengthAdjust="spacing" textLength="154.5083" x="805" y="276.6569">Authentication / Tokens</text></g><!--link API_GW to USER_SVC--><g class="link" data-entity-1="API_GW" data-entity-2="USER_SVC" data-source-line="55" data-uid="lnk27" id="link_API_GW_USER_SVC"><path d="M528.53,229.02 C511.83,236.81 495.8,247.91 486,263.59 C473.38,283.78 475.6213,305.9807 480.7713,325.3907" fill="none" id="API_GW-to-USER_SVC" style="stroke:#181818;stroke-width:1;"/><polygon fill="#181818" points="482.31,331.19,483.8681,321.4652,481.0277,326.3572,476.1357,323.5168,482.31,331.19" style="stroke:#181818;stroke-width:1;"/><text fill="#000000" font-family="sans-serif" font-size="13" lengthAdjust="spacing" textLength="158.209" x="487" y="276.6569">Manage Clients/Lawyers</text></g><!--link API_GW to PROCESS_SVC--><g class="link" data-entity-1="API_GW" data-entity-2="PROCESS_SVC" data-source-line="56" data-uid="lnk28" id="link_API_GW_PROCESS_SVC"><path d="M628.32,234.02 C638.23,242.12 647.94,252.14 654,263.59 C665.13,284.6 666.8172,306.1936 666.1572,325.2936" fill="none" id="API_GW-to-PROCESS_SVC" style="stroke:#181818;stroke-width:1;"/><polygon fill="#181818" points="665.95,331.29,670.2584,322.4335,666.1227,326.293,662.2632,322.1572,665.95,331.29" style="stroke:#181818;stroke-width:1;"/><text fill="#000000" font-family="sans-serif" font-size="13" lengthAdjust="spacing" textLength="114.5752" x="661" y="276.6569">Handle Processes</text></g><!--link API_GW to DOC_SVC--><g class="link" data-entity-1="API_GW" data-entity-2="DOC_SVC" data-source-line="57" data-uid="lnk29" id="link_API_GW_DOC_SVC"><path d="M528.3,215.42 C457.1,221.19 349.01,234.57 321,263.59 C303.84,281.37 301.9661,304.9657 303.4461,325.3757" fill="none" id="API_GW-to-DOC_SVC" style="stroke:#181818;stroke-width:1;"/><polygon fill="#181818" points="303.88,331.36,307.2186,322.0943,303.5184,326.3731,299.2396,322.6729,303.88,331.36" style="stroke:#181818;stroke-width:1;"/><text fill="#000000" font-family="sans-serif" font-size="13" lengthAdjust="spacing" textLength="148.9858" x="322" y="276.6569">Upload / Retrieve Docs</text></g><!--link API_GW to COMM_SVC--><g class="link" data-entity-1="API_GW" data-entity-2="COMM_SVC" data-source-line="58" data-uid="lnk30" id="link_API_GW_COMM_SVC"><path d="M657.67,215.66 C750.05,222.49 914.55,237.86 968,263.59 C1000.57,279.27 1025.5625,305.5803 1042.6825,326.8003" fill="none" id="API_GW-to-COMM_SVC" style="stroke:#181818;stroke-width:1;"/><polygon fill="#181818" points="1046.45,331.47,1043.912,321.9538,1043.3104,327.5786,1037.6857,326.9771,1046.45,331.47" style="stroke:#181818;stroke-width:1;"/><text fill="#000000" font-family="sans-serif" font-size="13" lengthAdjust="spacing" textLength="118.2378" x="996" y="276.6569">Send Notifications</text></g><!--link API_GW to CHATBOT--><g class="link" data-entity-1="API_GW" data-entity-2="CHATBOT" data-source-line="59" data-uid="lnk31" id="link_API_GW_CHATBOT"><path d="M528.64,211.47 C406.71,213.04 149.27,224.12 94,288.59 C41.69,349.61 72.2109,450.0836 90.2409,496.0936" fill="none" id="API_GW-to-CHATBOT" style="stroke:#181818;stroke-width:1;"/><polygon fill="#181818" points="92.43,501.68,92.8705,491.841,90.6057,497.0247,85.422,494.7599,92.43,501.68" style="stroke:#181818;stroke-width:1;"/><text fill="#000000" font-family="sans-serif" font-size="13" lengthAdjust="spacing" textLength="111.4902" x="95" y="359.3069">Chat / Legal Q&amp;A</text></g><!--link AUTH to PG_DB--><g class="link" data-entity-1="AUTH" data-entity-2="PG_DB" data-source-line="62" data-uid="lnk32" id="link_AUTH_PG_DB"><path d="M829.68,378.14 C809.19,392.74 781.19,411.65 755,425.89 C730.34,439.29 723.73,442.32 697,450.89 C680.98,456.02 675.8,453.12 660,458.89 C629.13,470.16 601.5105,484.796 577.5605,498.896" fill="none" id="AUTH-to-PG_DB" style="stroke:#181818;stroke-width:1;"/><polygon fill="#181818" points="572.39,501.94,582.1751,500.821,576.6987,499.4033,578.1164,493.927,572.39,501.94" style="stroke:#181818;stroke-width:1;"/><text fill="#000000" font-family="sans-serif" font-size="13" lengthAdjust="spacing" textLength="105.8027" x="740" y="446.9569">User credentials</text></g><!--link USER_SVC to PG_DB--><g class="link" data-entity-1="USER_SVC" data-entity-2="PG_DB" data-source-line="63" data-uid="lnk33" id="link_USER_SVC_PG_DB"><path d="M489.72,378.11 C490.03,397.69 491.87,426.7 499,450.89 C504.34,469.01 511.2076,482.7363 519.5776,496.7763" fill="none" id="USER_SVC-to-PG_DB" style="stroke:#181818;stroke-width:1;"/><polygon fill="#181818" points="522.65,501.93,521.4772,492.1512,520.0897,497.6353,514.6056,496.2477,522.65,501.93" style="stroke:#181818;stroke-width:1;"/><text fill="#000000" font-family="sans-serif" font-size="13" lengthAdjust="spacing" textLength="81.8848" x="500" y="446.9569">User profiles</text></g><!--link PROCESS_SVC to PG_DB--><g class="link" data-entity-1="PROCESS_SVC" data-entity-2="PG_DB" data-source-line="64" data-uid="lnk34" id="link_PROCESS_SVC_PG_DB"><path d="M647.14,378.09 C622.71,410.45 581.3843,465.2208 557.1443,497.3408" fill="none" id="PROCESS_SVC-to-PG_DB" style="stroke:#181818;stroke-width:1;"/><polygon fill="#181818" points="553.53,502.13,562.1443,497.3557,556.5419,498.139,555.7586,492.5366,553.53,502.13" style="stroke:#181818;stroke-width:1;"/><text fill="#000000" font-family="sans-serif" font-size="13" lengthAdjust="spacing" textLength="83.2432" x="605" y="446.9569">Process data</text></g><!--link DOC_SVC to FILE_STORE--><g class="link" data-entity-1="DOC_SVC" data-entity-2="FILE_STORE" data-source-line="65" data-uid="lnk35" id="link_DOC_SVC_FILE_STORE"><path d="M307,378.09 C307,412.06 307,470 307,500.71" fill="none" id="DOC_SVC-to-FILE_STORE" style="stroke:#181818;stroke-width:1;"/><polygon fill="#181818" points="307,506.71,311,497.71,307,501.71,303,497.71,307,506.71" style="stroke:#181818;stroke-width:1;"/><text fill="#000000" font-family="sans-serif" font-size="13" lengthAdjust="spacing" textLength="77.8794" x="308" y="446.9569">File uploads</text></g><!--link COMM_SVC to EMAIL_SVC--><g class="link" data-entity-1="COMM_SVC" data-entity-2="EMAIL_SVC" data-source-line="66" data-uid="lnk36" id="link_COMM_SVC_EMAIL_SVC"><path d="M1026.15,378.27 C1002.42,392.48 970.75,410.91 942,425.89 C938.14,427.9 874.85,456.86 871,458.89 C845.87,472.13 823.4895,485.2909 802.2695,498.2609" fill="none" id="COMM_SVC-to-EMAIL_SVC" style="stroke:#181818;stroke-width:1;"/><polygon fill="#181818" points="797.15,501.39,806.9152,500.1093,801.4162,498.7824,802.7431,493.2834,797.15,501.39" style="stroke:#181818;stroke-width:1;"/><text fill="#000000" font-family="sans-serif" font-size="13" lengthAdjust="spacing" textLength="76.4321" x="924" y="446.9569">Email / SMS</text></g><!--link CHATBOT to QDRANT_DB--><g class="link" data-entity-1="CHATBOT" data-entity-2="QDRANT_DB" data-source-line="69" data-uid="lnk37" id="link_CHATBOT_QDRANT_DB"><path d="M163.87,548.61 C223.56,570.4 307.7037,601.1029 366.9137,622.7129" fill="none" id="CHATBOT-to-QDRANT_DB" style="stroke:#181818;stroke-width:1;"/><polygon fill="#181818" points="372.55,624.77,365.4669,617.9268,367.8531,623.0557,362.7241,625.4419,372.55,624.77" style="stroke:#181818;stroke-width:1;"/><text fill="#000000" font-family="sans-serif" font-size="13" lengthAdjust="spacing" textLength="149.6777" x="288" y="591.2469">Query legal knowledge</text></g><!--link PROCESS_SVC to QDRANT_DB--><g class="link" data-entity-1="PROCESS_SVC" data-entity-2="QDRANT_DB" data-source-line="70" data-uid="lnk38" id="link_PROCESS_SVC_QDRANT_DB"><path d="M692.46,378.06 C714.71,394.23 747.11,415.07 779,425.89 C794.87,431.27 841.01,423.3 854,433.89 C883.6,458 885.26,518.97 862,548.18 C821.75,598.74 653.4047,624.9003 539.7447,637.2803" fill="none" id="PROCESS_SVC-to-QDRANT_DB" style="stroke:#181818;stroke-width:1;"/><polygon fill="#181818" points="533.78,637.93,543.1602,640.932,538.7506,637.3886,542.294,632.979,533.78,637.93" style="stroke:#181818;stroke-width:1;"/><text fill="#000000" font-family="sans-serif" font-size="13" lengthAdjust="spacing" textLength="158.2153" x="878" y="529.5969">Legal search integration</text></g><!--SRC=[hLHHRvim47xdLvmwQSiUgaXxdBH916Z3H182fDiqJP4BReeAcDccMLJrl-zi0uMswwIbUOhFtnrtd-_xn4rUrOIJ4b9MrgoYbOpbeQ3GbCK7ote7d_xxXybXvCNUCh4JVxM4mFxkHSTLh4bwGtOKJa9E1RPAPCug2CY1SfZOrQuf28SppYf9g-pz2H3Hd-3E0lZX53ccGSYu9CLFTMyY6r_T1cIlAWrkJSJSsbcPLyDB7J1tSrRI6ZlJSNN0yFtHzDbX6FZEwxDdrtMHfoFod3Smmsj5r1I_wnlokj2TXKF2mufWYT27SoBfdXmq4i_Rywy6rd_7OPo2oqg2lCMKt-Of5IVw8SnlK6yZi8iMemjkOY_QnXVES-2GCwmaHlWmMZbU7FyjnMLfKwf_mnntvVJu-yUzSoR4gTD8cLUxVtLlD_9wLDdU9FFdW0uhowRgk1zcEAl5Oj3CySlZseaDRy7xbdZHqWvUTO5S8ecg_LjINf72B96X56_wiE4gmz0b4KgrJCWTf_4wW4b42qq2mjoPsRRmVElE7gMiCqwGkCa5JINZKzj7qWXFhqt6setiPT9b2KJezivoDB2uFKtQhuhM3_p0syR9AlBCIXUioV01VN2kYRnaumLnvdOoMoL3f8VRN4pZHGouXRTvrixjBMm_qEzt_Civg-NISvJgu-DAONPlVv9rQhOwouFJqy-jSE4Ze5KdgFqlCPeD1gtE-bv6jHxuCiWOuXWJDfVeGO3zr2olfB2qt_Mc0fmraWhWz5T31LwtYRe6YWihAD7X79sOff0m76-4x4m4qGjIgMqmiukfcMu47ZW8ukUaod2BMgkX8sJh6uZQr0KZoZ8ZAdbERvNTfIDifsi4n-eTbapcLstFOw3PDSIfJSII0TsXEDPlRKMDjbBHkX0WOPIJLC8-H-F1zTUKw26KXbHZoazJJZF542c4rLFn15LpTeM24TQGW26girkbIgkRNG4Uj8GeBRf6yo6iVce5wxM1A2qV70u5f5_S1-IvrRJLKQ2IUcbZqhgX_025vkEcOlk2PZlwfDrXXk5EwBAQhHtNZFy1]--></g></svg>