<svg xmlns="http://www.w3.org/2000/svg" xmlns:xlink="http://www.w3.org/1999/xlink" contentStyleType="text/css" data-diagram-type="CLASS" height="1050px" preserveAspectRatio="none" style="width:2783px;height:1050px;background:#FFFFFF;" version="1.1" viewBox="0 0 2783 1050" width="2783px" zoomAndPan="magnify"><defs/><g><!--class User--><g class="entity" data-entity="User" data-source-line="7" data-uid="ent0002" id="entity_User"><rect fill="#F1F1F1" height="129.4844" rx="2.5" ry="2.5" style="stroke:#181818;stroke-width:0.5;" width="424.2344" x="1727" y="7"/><ellipse cx="1918.9121" cy="23" fill="#A9DCDF" rx="11" ry="11" style="stroke:#181818;stroke-width:1;"/><path d="M1919.0215,18.3438 L1917.8652,23.4219 L1920.1934,23.4219 L1919.0215,18.3438 Z M1917.5371,16.1094 L1920.5215,16.1094 L1923.8809,28.5 L1921.4277,28.5 L1920.6621,25.4375 L1917.3809,25.4375 L1916.6309,28.5 L1914.1934,28.5 L1917.5371,16.1094 Z " fill="#000000"/><text fill="#000000" font-family="sans-serif" font-size="14" font-style="italic" lengthAdjust="spacing" textLength="31.9102" x="1939.4121" y="27.8467">User</text><line style="stroke:#181818;stroke-width:0.5;" x1="1728" x2="2150.2344" y1="39" y2="39"/><text fill="#000000" font-family="sans-serif" font-size="14" lengthAdjust="spacing" textLength="165.9902" x="1733" y="55.9951">ID: UUID {primary key}</text><text fill="#000000" font-family="sans-serif" font-size="14" lengthAdjust="spacing" textLength="210.3281" x="1733" y="72.292">email: text UNIQUE NOT NULL</text><text fill="#000000" font-family="sans-serif" font-size="14" lengthAdjust="spacing" textLength="219.6387" x="1733" y="88.5889">password_hash: text NOT NULL</text><text fill="#000000" font-family="sans-serif" font-size="14" lengthAdjust="spacing" textLength="153.6104" x="1733" y="104.8857">Name: text NOT NULL</text><line style="stroke:#181818;stroke-width:0.5;" x1="1728" x2="2150.2344" y1="112.1875" y2="112.1875"/><text fill="#000000" font-family="sans-serif" font-size="14" lengthAdjust="spacing" textLength="412.2344" x="1733" y="129.1826">phone: varchar(15) CHECK (phone ~ '^[0-9+\-\s]{7,15}$')</text></g><!--class Client--><g class="entity" data-entity="Client" data-source-line="19" data-uid="ent0003" id="entity_Client"><rect fill="#F1F1F1" height="113.1875" rx="2.5" ry="2.5" style="stroke:#181818;stroke-width:0.5;" width="380.3477" x="959.95" y="213.49"/><ellipse cx="1125.6087" cy="229.49" fill="#ADD1B2" rx="11" ry="11" style="stroke:#181818;stroke-width:1;"/><path d="M1128.5774,235.1306 Q1127.9993,235.4275 1127.3587,235.5681 Q1126.7181,235.7244 1126.0149,235.7244 Q1123.5149,235.7244 1122.1868,234.0838 Q1120.8743,232.4275 1120.8743,229.3025 Q1120.8743,226.1775 1122.1868,224.5213 Q1123.5149,222.865 1126.0149,222.865 Q1126.7181,222.865 1127.3587,223.0213 Q1128.0149,223.1775 1128.5774,223.4744 L1128.5774,226.1931 Q1127.9524,225.615 1127.3587,225.3494 Q1126.7649,225.0681 1126.1399,225.0681 Q1124.7962,225.0681 1124.1087,226.1463 Q1123.4212,227.2088 1123.4212,229.3025 Q1123.4212,231.3963 1124.1087,232.4744 Q1124.7962,233.5369 1126.1399,233.5369 Q1126.7649,233.5369 1127.3587,233.2713 Q1127.9524,232.99 1128.5774,232.4119 L1128.5774,235.1306 Z " fill="#000000"/><text fill="#000000" font-family="sans-serif" font-size="14" lengthAdjust="spacing" textLength="40.5303" x="1146.1087" y="234.3367">Client</text><line style="stroke:#181818;stroke-width:0.5;" x1="960.95" x2="1339.2977" y1="245.49" y2="245.49"/><text fill="#000000" font-family="sans-serif" font-size="14" lengthAdjust="spacing" textLength="368.3477" x="965.95" y="262.4851">user_ID: UUID {primary key, foreign key -&gt; User.ID}</text><text fill="#000000" font-family="sans-serif" font-size="14" lengthAdjust="spacing" textLength="92.3535" x="965.95" y="278.782">address: text</text><text fill="#000000" font-family="sans-serif" font-size="14" lengthAdjust="spacing" textLength="348.1064" x="965.95" y="295.0789">status: ENUM {Active, Inactive} DEFAULT 'Active'</text><line style="stroke:#181818;stroke-width:0.5;" x1="960.95" x2="1339.2977" y1="302.3806" y2="302.3806"/><text fill="#000000" font-family="sans-serif" font-size="14" lengthAdjust="spacing" textLength="342.0293" x="965.95" y="319.3757">NIF: char(9) UNIQUE CHECK (NIF ~ '^[0-9]{9}$')</text></g><!--class Lawyer--><g class="entity" data-entity="Lawyer" data-source-line="27" data-uid="ent0004" id="entity_Lawyer"><rect fill="#F1F1F1" height="113.1875" rx="2.5" ry="2.5" style="stroke:#181818;stroke-width:0.5;" width="600.4307" x="1374.91" y="213.49"/><ellipse cx="1645.6336" cy="229.49" fill="#ADD1B2" rx="11" ry="11" style="stroke:#181818;stroke-width:1;"/><path d="M1648.6024,235.1306 Q1648.0243,235.4275 1647.3836,235.5681 Q1646.743,235.7244 1646.0399,235.7244 Q1643.5399,235.7244 1642.2118,234.0838 Q1640.8993,232.4275 1640.8993,229.3025 Q1640.8993,226.1775 1642.2118,224.5213 Q1643.5399,222.865 1646.0399,222.865 Q1646.743,222.865 1647.3836,223.0213 Q1648.0399,223.1775 1648.6024,223.4744 L1648.6024,226.1931 Q1647.9774,225.615 1647.3836,225.3494 Q1646.7899,225.0681 1646.1649,225.0681 Q1644.8211,225.0681 1644.1336,226.1463 Q1643.4461,227.2088 1643.4461,229.3025 Q1643.4461,231.3963 1644.1336,232.4744 Q1644.8211,233.5369 1646.1649,233.5369 Q1646.7899,233.5369 1647.3836,233.2713 Q1647.9774,232.99 1648.6024,232.4119 L1648.6024,235.1306 Z " fill="#000000"/><text fill="#000000" font-family="sans-serif" font-size="14" lengthAdjust="spacing" textLength="50.4834" x="1666.1336" y="234.3367">Lawyer</text><line style="stroke:#181818;stroke-width:0.5;" x1="1375.91" x2="1974.3407" y1="245.49" y2="245.49"/><text fill="#000000" font-family="sans-serif" font-size="14" lengthAdjust="spacing" textLength="588.4307" x="1380.91" y="262.4851">user_ID: UUID {primary key, foreign key -&gt; User.ID} '«Links back to User for login»'</text><text fill="#000000" font-family="sans-serif" font-size="14" lengthAdjust="spacing" textLength="379.791" x="1380.91" y="278.782">professional_register_number: text UNIQUE NOT NULL</text><text fill="#000000" font-family="sans-serif" font-size="14" lengthAdjust="spacing" textLength="348.1064" x="1380.91" y="295.0789">status: ENUM {Active, Inactive} DEFAULT 'Active'</text><line style="stroke:#181818;stroke-width:0.5;" x1="1375.91" x2="1974.3407" y1="302.3806" y2="302.3806"/><text fill="#000000" font-family="sans-serif" font-size="14" lengthAdjust="spacing" textLength="342.0293" x="1380.91" y="319.3757">NIF: char(9) UNIQUE CHECK (NIF ~ '^[0-9]{9}$')</text></g><!--class Admin--><g class="entity" data-entity="Admin" data-source-line="35" data-uid="ent0005" id="entity_Admin"><rect fill="#F1F1F1" height="48" rx="2.5" ry="2.5" style="stroke:#181818;stroke-width:0.5;" width="76.8643" x="2193.69" y="246.08"/><ellipse cx="2208.69" cy="262.08" fill="#ADD1B2" rx="11" ry="11" style="stroke:#181818;stroke-width:1;"/><path d="M2211.6588,267.7206 Q2211.0806,268.0175 2210.44,268.1581 Q2209.7994,268.3144 2209.0963,268.3144 Q2206.5963,268.3144 2205.2681,266.6738 Q2203.9556,265.0175 2203.9556,261.8925 Q2203.9556,258.7675 2205.2681,257.1113 Q2206.5963,255.455 2209.0963,255.455 Q2209.7994,255.455 2210.44,255.6113 Q2211.0963,255.7675 2211.6588,256.0644 L2211.6588,258.7831 Q2211.0338,258.205 2210.44,257.9394 Q2209.8463,257.6581 2209.2213,257.6581 Q2207.8775,257.6581 2207.19,258.7363 Q2206.5025,259.7988 2206.5025,261.8925 Q2206.5025,263.9863 2207.19,265.0644 Q2207.8775,266.1269 2209.2213,266.1269 Q2209.8463,266.1269 2210.44,265.8613 Q2211.0338,265.58 2211.6588,265.0019 L2211.6588,267.7206 Z " fill="#000000"/><text fill="#000000" font-family="sans-serif" font-size="14" lengthAdjust="spacing" textLength="44.8643" x="2222.69" y="266.9267">Admin</text><line style="stroke:#181818;stroke-width:0.5;" x1="2194.69" x2="2269.5543" y1="278.08" y2="278.08"/><line style="stroke:#181818;stroke-width:0.5;" x1="2194.69" x2="2269.5543" y1="286.08" y2="286.08"/></g><!--class Process--><g class="entity" data-entity="Process" data-source-line="38" data-uid="ent0006" id="entity_Process"><rect fill="#F1F1F1" height="210.9688" rx="2.5" ry="2.5" style="stroke:#181818;stroke-width:0.5;" width="459.7676" x="1393.24" y="403.68"/><ellipse cx="1592.0427" cy="419.68" fill="#ADD1B2" rx="11" ry="11" style="stroke:#181818;stroke-width:1;"/><path d="M1595.0115,425.3206 Q1594.4334,425.6175 1593.7927,425.7581 Q1593.1521,425.9144 1592.449,425.9144 Q1589.949,425.9144 1588.6209,424.2738 Q1587.3084,422.6175 1587.3084,419.4925 Q1587.3084,416.3675 1588.6209,414.7113 Q1589.949,413.055 1592.449,413.055 Q1593.1521,413.055 1593.7927,413.2113 Q1594.449,413.3675 1595.0115,413.6644 L1595.0115,416.3831 Q1594.3865,415.805 1593.7927,415.5394 Q1593.199,415.2581 1592.574,415.2581 Q1591.2302,415.2581 1590.5427,416.3363 Q1589.8552,417.3988 1589.8552,419.4925 Q1589.8552,421.5863 1590.5427,422.6644 Q1591.2302,423.7269 1592.574,423.7269 Q1593.199,423.7269 1593.7927,423.4613 Q1594.3865,423.18 1595.0115,422.6019 L1595.0115,425.3206 Z " fill="#000000"/><text fill="#000000" font-family="sans-serif" font-size="14" lengthAdjust="spacing" textLength="53.6621" x="1612.5427" y="424.5267">Process</text><line style="stroke:#181818;stroke-width:0.5;" x1="1394.24" x2="1852.0076" y1="435.68" y2="435.68"/><text fill="#000000" font-family="sans-serif" font-size="14" lengthAdjust="spacing" textLength="165.9902" x="1399.24" y="452.6751">ID: UUID {primary key}</text><text fill="#000000" font-family="sans-serif" font-size="14" lengthAdjust="spacing" textLength="329.2734" x="1399.24" y="468.972">client_ID: UUID {foreign key -&gt; Client.user_ID}</text><text fill="#000000" font-family="sans-serif" font-size="14" lengthAdjust="spacing" textLength="347.3477" x="1399.24" y="485.2689">lawyer_ID: UUID {foreign key -&gt; Lawyer.user_ID}</text><text fill="#000000" font-family="sans-serif" font-size="14" lengthAdjust="spacing" textLength="114.8848" x="1399.24" y="501.5657">description: text</text><text fill="#000000" font-family="sans-serif" font-size="14" lengthAdjust="spacing" textLength="300.2959" x="1399.24" y="517.8626">created_at: date DEFAULT CURRENT_DATE</text><text fill="#000000" font-family="sans-serif" font-size="14" lengthAdjust="spacing" textLength="106.75" x="1399.24" y="534.1595">closed_at: date</text><text fill="#000000" font-family="sans-serif" font-size="14" lengthAdjust="spacing" textLength="447.7676" x="1399.24" y="550.4564">Process_Type: ENUM {Civil, Criminal, Corporate, Family, Other}</text><line style="stroke:#181818;stroke-width:0.5;" x1="1394.24" x2="1852.0076" y1="557.7581" y2="557.7581"/><text fill="#000000" font-family="sans-serif" font-size="14" lengthAdjust="spacing" textLength="304.7666" x="1399.24" y="574.7532">steps_count: int CHECK (steps_count &gt;= 0)</text><text fill="#000000" font-family="sans-serif" font-size="14" lengthAdjust="spacing" textLength="313.2979" x="1399.24" y="591.0501">current_step: int CHECK (current_step &gt;= 0)</text><text fill="#000000" font-family="sans-serif" font-size="14" lengthAdjust="spacing" textLength="390.4551" x="1399.24" y="607.347">CHECK (closed_at IS NULL OR closed_at &gt;= created_at)</text></g><!--class Documents--><g class="entity" data-entity="Documents" data-source-line="51" data-uid="ent0007" id="entity_Documents"><rect fill="#F1F1F1" height="129.4844" rx="2.5" ry="2.5" style="stroke:#181818;stroke-width:0.5;" width="426.0596" x="620.09" y="699.79"/><ellipse cx="788.9582" cy="715.79" fill="#ADD1B2" rx="11" ry="11" style="stroke:#181818;stroke-width:1;"/><path d="M791.9269,721.4306 Q791.3488,721.7275 790.7082,721.8681 Q790.0675,722.0244 789.3644,722.0244 Q786.8644,722.0244 785.5363,720.3838 Q784.2238,718.7275 784.2238,715.6025 Q784.2238,712.4775 785.5363,710.8213 Q786.8644,709.165 789.3644,709.165 Q790.0675,709.165 790.7082,709.3213 Q791.3644,709.4775 791.9269,709.7744 L791.9269,712.4931 Q791.3019,711.915 790.7082,711.6494 Q790.1144,711.3681 789.4894,711.3681 Q788.1457,711.3681 787.4582,712.4463 Q786.7707,713.5088 786.7707,715.6025 Q786.7707,717.6963 787.4582,718.7744 Q788.1457,719.8369 789.4894,719.8369 Q790.1144,719.8369 790.7082,719.5713 Q791.3019,719.29 791.9269,718.7119 L791.9269,721.4306 Z " fill="#000000"/><text fill="#000000" font-family="sans-serif" font-size="14" lengthAdjust="spacing" textLength="79.8232" x="809.4582" y="720.6367">Documents</text><line style="stroke:#181818;stroke-width:0.5;" x1="621.09" x2="1045.1496" y1="731.79" y2="731.79"/><text fill="#000000" font-family="sans-serif" font-size="14" lengthAdjust="spacing" textLength="165.9902" x="626.09" y="748.7851">ID: UUID {primary key}</text><text fill="#000000" font-family="sans-serif" font-size="14" lengthAdjust="spacing" textLength="320.5234" x="626.09" y="765.082">process_ID: UUID {foreign key -&gt; Process.ID}</text><text fill="#000000" font-family="sans-serif" font-size="14" lengthAdjust="spacing" textLength="414.0596" x="626.09" y="781.3789">file: BLOB NOT NULL '«Stored directly in DB as requested»'</text><text fill="#000000" font-family="sans-serif" font-size="14" lengthAdjust="spacing" textLength="221.2178" x="626.09" y="797.6757">is_read: boolean DEFAULT false</text><text fill="#000000" font-family="sans-serif" font-size="14" lengthAdjust="spacing" textLength="399.1777" x="626.09" y="813.9726">uploaded_at: timestamp DEFAULT CURRENT_TIMESTAMP</text><line style="stroke:#181818;stroke-width:0.5;" x1="621.09" x2="1045.1496" y1="821.2744" y2="821.2744"/></g><!--class Notification--><g class="entity" data-entity="Notification" data-source-line="59" data-uid="ent0008" id="entity_Notification"><rect fill="#F1F1F1" height="145.7813" rx="2.5" ry="2.5" style="stroke:#181818;stroke-width:0.5;" width="641.7813" x="2134.23" y="691.64"/><ellipse cx="2410.7061" cy="707.64" fill="#ADD1B2" rx="11" ry="11" style="stroke:#181818;stroke-width:1;"/><path d="M2413.6748,713.2806 Q2413.0967,713.5775 2412.4561,713.7181 Q2411.8154,713.8744 2411.1123,713.8744 Q2408.6123,713.8744 2407.2842,712.2338 Q2405.9717,710.5775 2405.9717,707.4525 Q2405.9717,704.3275 2407.2842,702.6713 Q2408.6123,701.015 2411.1123,701.015 Q2411.8154,701.015 2412.4561,701.1713 Q2413.1123,701.3275 2413.6748,701.6244 L2413.6748,704.3431 Q2413.0498,703.765 2412.4561,703.4994 Q2411.8623,703.2181 2411.2373,703.2181 Q2409.8936,703.2181 2409.2061,704.2963 Q2408.5186,705.3588 2408.5186,707.4525 Q2408.5186,709.5463 2409.2061,710.6244 Q2409.8936,711.6869 2411.2373,711.6869 Q2411.8623,711.6869 2412.4561,711.4213 Q2413.0498,711.14 2413.6748,710.5619 L2413.6748,713.2806 Z " fill="#000000"/><text fill="#000000" font-family="sans-serif" font-size="14" lengthAdjust="spacing" textLength="80.3291" x="2431.2061" y="712.4867">Notification</text><line style="stroke:#181818;stroke-width:0.5;" x1="2135.23" x2="2775.0113" y1="723.64" y2="723.64"/><text fill="#000000" font-family="sans-serif" font-size="14" lengthAdjust="spacing" textLength="165.9902" x="2140.23" y="740.6351">ID: UUID {primary key}</text><text fill="#000000" font-family="sans-serif" font-size="14" lengthAdjust="spacing" textLength="320.5234" x="2140.23" y="756.932">process_ID: UUID {foreign key -&gt; Process.ID}</text><text fill="#000000" font-family="sans-serif" font-size="14" lengthAdjust="spacing" textLength="629.7813" x="2140.23" y="773.2289">recipient_ID: UUID {foreign key -&gt; User.ID} '«Recipient can be Client, Lawyer, or Admin»'</text><text fill="#000000" font-family="sans-serif" font-size="14" lengthAdjust="spacing" textLength="165.9082" x="2140.23" y="789.5257">content: text NOT NULL</text><text fill="#000000" font-family="sans-serif" font-size="14" lengthAdjust="spacing" textLength="221.2178" x="2140.23" y="805.8226">is_read: boolean DEFAULT false</text><text fill="#000000" font-family="sans-serif" font-size="14" lengthAdjust="spacing" textLength="387.6318" x="2140.23" y="822.1195">created_at: timestamp DEFAULT CURRENT_TIMESTAMP</text><line style="stroke:#181818;stroke-width:0.5;" x1="2135.23" x2="2775.0113" y1="829.4213" y2="829.4213"/></g><!--class Chat--><g class="entity" data-entity="Chat" data-source-line="68" data-uid="ent0009" id="entity_Chat"><rect fill="#F1F1F1" height="113.1875" rx="2.5" ry="2.5" style="stroke:#181818;stroke-width:0.5;" width="359.3477" x="998.45" y="452.57"/><ellipse cx="1157.5154" cy="468.57" fill="#ADD1B2" rx="11" ry="11" style="stroke:#181818;stroke-width:1;"/><path d="M1160.4842,474.2106 Q1159.9061,474.5075 1159.2654,474.6481 Q1158.6248,474.8044 1157.9217,474.8044 Q1155.4217,474.8044 1154.0936,473.1638 Q1152.7811,471.5075 1152.7811,468.3825 Q1152.7811,465.2575 1154.0936,463.6013 Q1155.4217,461.945 1157.9217,461.945 Q1158.6248,461.945 1159.2654,462.1013 Q1159.9217,462.2575 1160.4842,462.5544 L1160.4842,465.2731 Q1159.8592,464.695 1159.2654,464.4294 Q1158.6717,464.1481 1158.0467,464.1481 Q1156.7029,464.1481 1156.0154,465.2263 Q1155.3279,466.2888 1155.3279,468.3825 Q1155.3279,470.4763 1156.0154,471.5544 Q1156.7029,472.6169 1158.0467,472.6169 Q1158.6717,472.6169 1159.2654,472.3513 Q1159.8592,472.07 1160.4842,471.4919 L1160.4842,474.2106 Z " fill="#000000"/><text fill="#000000" font-family="sans-serif" font-size="14" lengthAdjust="spacing" textLength="32.7168" x="1178.0154" y="473.4167">Chat</text><line style="stroke:#181818;stroke-width:0.5;" x1="999.45" x2="1356.7977" y1="484.57" y2="484.57"/><text fill="#000000" font-family="sans-serif" font-size="14" lengthAdjust="spacing" textLength="165.9902" x="1004.45" y="501.5651">ID: UUID {primary key}</text><text fill="#000000" font-family="sans-serif" font-size="14" lengthAdjust="spacing" textLength="329.2734" x="1004.45" y="517.862">client_ID: UUID {foreign key -&gt; Client.user_ID}</text><text fill="#000000" font-family="sans-serif" font-size="14" lengthAdjust="spacing" textLength="347.3477" x="1004.45" y="534.1589">lawyer_ID: UUID {foreign key -&gt; Lawyer.user_ID}</text><line style="stroke:#181818;stroke-width:0.5;" x1="999.45" x2="1356.7977" y1="541.4606" y2="541.4606"/><text fill="#000000" font-family="sans-serif" font-size="14" lengthAdjust="spacing" textLength="208.0791" x="1004.45" y="558.4557">UNIQUE (client_ID, lawyer_ID)</text></g><!--class Message--><g class="entity" data-entity="Message" data-source-line="75" data-uid="ent0010" id="entity_Message"><rect fill="#F1F1F1" height="129.4844" rx="2.5" ry="2.5" style="stroke:#181818;stroke-width:0.5;" width="578.2412" x="7" y="699.79"/><ellipse cx="261.1909" cy="715.79" fill="#ADD1B2" rx="11" ry="11" style="stroke:#181818;stroke-width:1;"/><path d="M264.1597,721.4306 Q263.5815,721.7275 262.9409,721.8681 Q262.3003,722.0244 261.5972,722.0244 Q259.0972,722.0244 257.769,720.3838 Q256.4565,718.7275 256.4565,715.6025 Q256.4565,712.4775 257.769,710.8213 Q259.0972,709.165 261.5972,709.165 Q262.3003,709.165 262.9409,709.3213 Q263.5972,709.4775 264.1597,709.7744 L264.1597,712.4931 Q263.5347,711.915 262.9409,711.6494 Q262.3472,711.3681 261.7222,711.3681 Q260.3784,711.3681 259.6909,712.4463 Q259.0034,713.5088 259.0034,715.6025 Q259.0034,717.6963 259.6909,718.7744 Q260.3784,719.8369 261.7222,719.8369 Q262.3472,719.8369 262.9409,719.5713 Q263.5347,719.29 264.1597,718.7119 L264.1597,721.4306 Z " fill="#000000"/><text fill="#000000" font-family="sans-serif" font-size="14" lengthAdjust="spacing" textLength="61.3594" x="281.6909" y="720.6367">Message</text><line style="stroke:#181818;stroke-width:0.5;" x1="8" x2="584.2412" y1="731.79" y2="731.79"/><text fill="#000000" font-family="sans-serif" font-size="14" lengthAdjust="spacing" textLength="165.9902" x="13" y="748.7851">ID: UUID {primary key}</text><text fill="#000000" font-family="sans-serif" font-size="14" lengthAdjust="spacing" textLength="276.1104" x="13" y="765.082">chat_ID: UUID {foreign key -&gt; Chat.ID}</text><text fill="#000000" font-family="sans-serif" font-size="14" lengthAdjust="spacing" textLength="165.9082" x="13" y="781.3789">content: text NOT NULL</text><text fill="#000000" font-family="sans-serif" font-size="14" lengthAdjust="spacing" textLength="364.2666" x="13" y="797.6757">sent_at: timestamp DEFAULT CURRENT_TIMESTAMP</text><line style="stroke:#181818;stroke-width:0.5;" x1="8" x2="584.2412" y1="804.9775" y2="804.9775"/><text fill="#000000" font-family="sans-serif" font-size="14" lengthAdjust="spacing" textLength="566.2412" x="13" y="821.9726">sender_ID: UUID {foreign key -&gt; User.ID} '«Sender is a User (Client or Lawyer)»'</text></g><!--class Appointment--><g class="entity" data-entity="Appointment" data-source-line="83" data-uid="ent0011" id="entity_Appointment"><rect fill="#F1F1F1" height="145.7813" rx="2.5" ry="2.5" style="stroke:#181818;stroke-width:0.5;" width="526.124" x="1081.06" y="691.64"/><ellipse cx="1294.4814" cy="707.64" fill="#ADD1B2" rx="11" ry="11" style="stroke:#181818;stroke-width:1;"/><path d="M1297.4501,713.2806 Q1296.872,713.5775 1296.2314,713.7181 Q1295.5908,713.8744 1294.8876,713.8744 Q1292.3876,713.8744 1291.0595,712.2338 Q1289.747,710.5775 1289.747,707.4525 Q1289.747,704.3275 1291.0595,702.6713 Q1292.3876,701.015 1294.8876,701.015 Q1295.5908,701.015 1296.2314,701.1713 Q1296.8876,701.3275 1297.4501,701.6244 L1297.4501,704.3431 Q1296.8251,703.765 1296.2314,703.4994 Q1295.6376,703.2181 1295.0126,703.2181 Q1293.6689,703.2181 1292.9814,704.2963 Q1292.2939,705.3588 1292.2939,707.4525 Q1292.2939,709.5463 1292.9814,710.6244 Q1293.6689,711.6869 1295.0126,711.6869 Q1295.6376,711.6869 1296.2314,711.4213 Q1296.8251,711.14 1297.4501,710.5619 L1297.4501,713.2806 Z " fill="#000000"/><text fill="#000000" font-family="sans-serif" font-size="14" lengthAdjust="spacing" textLength="90.7813" x="1314.9814" y="712.4867">Appointment</text><line style="stroke:#181818;stroke-width:0.5;" x1="1082.06" x2="1606.184" y1="723.64" y2="723.64"/><text fill="#000000" font-family="sans-serif" font-size="14" lengthAdjust="spacing" textLength="165.9902" x="1087.06" y="740.6351">ID: UUID {primary key}</text><text fill="#000000" font-family="sans-serif" font-size="14" lengthAdjust="spacing" textLength="329.2734" x="1087.06" y="756.932">client_ID: UUID {foreign key -&gt; Client.user_ID}</text><text fill="#000000" font-family="sans-serif" font-size="14" lengthAdjust="spacing" textLength="347.3477" x="1087.06" y="773.2289">lawyer_ID: UUID {foreign key -&gt; Lawyer.user_ID}</text><text fill="#000000" font-family="sans-serif" font-size="14" lengthAdjust="spacing" textLength="320.5234" x="1087.06" y="789.5257">process_ID: UUID {foreign key -&gt; Process.ID}</text><text fill="#000000" font-family="sans-serif" font-size="14" lengthAdjust="spacing" textLength="387.6318" x="1087.06" y="805.8226">created_at: timestamp DEFAULT CURRENT_TIMESTAMP</text><line style="stroke:#181818;stroke-width:0.5;" x1="1082.06" x2="1606.184" y1="813.1244" y2="813.1244"/><text fill="#000000" font-family="sans-serif" font-size="14" lengthAdjust="spacing" textLength="514.124" x="1087.06" y="830.1195">scheduled_at: timestamp CHECK (scheduled_at &gt; CURRENT_TIMESTAMP)</text></g><!--class Appointment_Notes--><g class="entity" data-entity="Appointment_Notes" data-source-line="92" data-uid="ent0012" id="entity_Appointment_Notes"><rect fill="#F1F1F1" height="129.4844" rx="2.5" ry="2.5" style="stroke:#181818;stroke-width:0.5;" width="405.3193" x="1141.46" y="914.43"/><ellipse cx="1270.7618" cy="930.43" fill="#ADD1B2" rx="11" ry="11" style="stroke:#181818;stroke-width:1;"/><path d="M1273.7305,936.0706 Q1273.1524,936.3675 1272.5118,936.5081 Q1271.8711,936.6644 1271.168,936.6644 Q1268.668,936.6644 1267.3399,935.0238 Q1266.0274,933.3675 1266.0274,930.2425 Q1266.0274,927.1175 1267.3399,925.4613 Q1268.668,923.805 1271.168,923.805 Q1271.8711,923.805 1272.5118,923.9613 Q1273.168,924.1175 1273.7305,924.4144 L1273.7305,927.1331 Q1273.1055,926.555 1272.5118,926.2894 Q1271.918,926.0081 1271.293,926.0081 Q1269.9493,926.0081 1269.2618,927.0863 Q1268.5743,928.1488 1268.5743,930.2425 Q1268.5743,932.3363 1269.2618,933.4144 Q1269.9493,934.4769 1271.293,934.4769 Q1271.918,934.4769 1272.5118,934.2113 Q1273.1055,933.93 1273.7305,933.3519 L1273.7305,936.0706 Z " fill="#000000"/><text fill="#000000" font-family="sans-serif" font-size="14" lengthAdjust="spacing" textLength="138.2158" x="1291.2618" y="935.2767">Appointment_Notes</text><line style="stroke:#181818;stroke-width:0.5;" x1="1142.46" x2="1545.7793" y1="946.43" y2="946.43"/><text fill="#000000" font-family="sans-serif" font-size="14" lengthAdjust="spacing" textLength="165.9902" x="1147.46" y="963.4251">ID: UUID {primary key}</text><text fill="#000000" font-family="sans-serif" font-size="14" lengthAdjust="spacing" textLength="393.3193" x="1147.46" y="979.722">appointment_ID: UUID {foreign key -&gt; Appointment.ID}</text><text fill="#000000" font-family="sans-serif" font-size="14" lengthAdjust="spacing" textLength="290.8008" x="1147.46" y="996.0189">author_ID: UUID {foreign key -&gt; User.ID}</text><text fill="#000000" font-family="sans-serif" font-size="14" lengthAdjust="spacing" textLength="143.8486" x="1147.46" y="1012.3157">note: text NOT NULL</text><text fill="#000000" font-family="sans-serif" font-size="14" lengthAdjust="spacing" textLength="387.6318" x="1147.46" y="1028.6126">created_at: timestamp DEFAULT CURRENT_TIMESTAMP</text><line style="stroke:#181818;stroke-width:0.5;" x1="1142.46" x2="1545.7793" y1="1035.9144" y2="1035.9144"/></g><!--class Client_Log--><g class="entity" data-entity="Client_Log" data-source-line="104" data-uid="ent0013" id="entity_Client_Log"><rect fill="#F1F1F1" height="145.7813" rx="2.5" ry="2.5" style="stroke:#181818;stroke-width:0.5;" width="560.8438" x="402.7" y="436.27"/><ellipse cx="642.4808" cy="452.27" fill="#ADD1B2" rx="11" ry="11" style="stroke:#181818;stroke-width:1;"/><path d="M645.4495,457.9106 Q644.8714,458.2075 644.2308,458.3481 Q643.5901,458.5044 642.887,458.5044 Q640.387,458.5044 639.0589,456.8638 Q637.7464,455.2075 637.7464,452.0825 Q637.7464,448.9575 639.0589,447.3013 Q640.387,445.645 642.887,445.645 Q643.5901,445.645 644.2308,445.8013 Q644.887,445.9575 645.4495,446.2544 L645.4495,448.9731 Q644.8245,448.395 644.2308,448.1294 Q643.637,447.8481 643.012,447.8481 Q641.6683,447.8481 640.9808,448.9263 Q640.2933,449.9888 640.2933,452.0825 Q640.2933,454.1763 640.9808,455.2544 Q641.6683,456.3169 643.012,456.3169 Q643.637,456.3169 644.2308,456.0513 Q644.8245,455.77 645.4495,455.1919 L645.4495,457.9106 Z " fill="#000000"/><text fill="#000000" font-family="sans-serif" font-size="14" lengthAdjust="spacing" textLength="72.7822" x="662.9808" y="457.1167">Client_Log</text><line style="stroke:#181818;stroke-width:0.5;" x1="403.7" x2="962.5438" y1="468.27" y2="468.27"/><text fill="#000000" font-family="sans-serif" font-size="14" lengthAdjust="spacing" textLength="165.9902" x="408.7" y="485.2651">ID: UUID {primary key}</text><text fill="#000000" font-family="sans-serif" font-size="14" lengthAdjust="spacing" textLength="548.8438" x="408.7" y="501.562">client_ID: UUID {foreign key -&gt; Client.user_ID} '«Specific FK to Client role ID»'</text><text fill="#000000" font-family="sans-serif" font-size="14" lengthAdjust="spacing" textLength="415.6182" x="408.7" y="517.8589">operation: ENUM {CREATE, UPDATE, DELETE, INACTIVATE}</text><text fill="#000000" font-family="sans-serif" font-size="14" lengthAdjust="spacing" textLength="371.0615" x="408.7" y="534.1557">performed_by: UUID {foreign key -&gt; Admin.user_ID}</text><text fill="#000000" font-family="sans-serif" font-size="14" lengthAdjust="spacing" textLength="388.4453" x="408.7" y="550.4526">timestamp: timestamp DEFAULT CURRENT_TIMESTAMP</text><text fill="#000000" font-family="sans-serif" font-size="14" lengthAdjust="spacing" textLength="83.6855" x="408.7" y="566.7495">details: text</text><line style="stroke:#181818;stroke-width:0.5;" x1="403.7" x2="962.5438" y1="574.0513" y2="574.0513"/></g><!--class Admin_Log--><g class="entity" data-entity="Admin_Log" data-source-line="113" data-uid="ent0014" id="entity_Admin_Log"><rect fill="#F1F1F1" height="145.7813" rx="2.5" ry="2.5" style="stroke:#181818;stroke-width:0.5;" width="400.4453" x="2080.9" y="436.27"/><ellipse cx="2238.3146" cy="452.27" fill="#ADD1B2" rx="11" ry="11" style="stroke:#181818;stroke-width:1;"/><path d="M2241.2833,457.9106 Q2240.7052,458.2075 2240.0646,458.3481 Q2239.4239,458.5044 2238.7208,458.5044 Q2236.2208,458.5044 2234.8927,456.8638 Q2233.5802,455.2075 2233.5802,452.0825 Q2233.5802,448.9575 2234.8927,447.3013 Q2236.2208,445.645 2238.7208,445.645 Q2239.4239,445.645 2240.0646,445.8013 Q2240.7208,445.9575 2241.2833,446.2544 L2241.2833,448.9731 Q2240.6583,448.395 2240.0646,448.1294 Q2239.4708,447.8481 2238.8458,447.8481 Q2237.5021,447.8481 2236.8146,448.9263 Q2236.1271,449.9888 2236.1271,452.0825 Q2236.1271,454.1763 2236.8146,455.2544 Q2237.5021,456.3169 2238.8458,456.3169 Q2239.4708,456.3169 2240.0646,456.0513 Q2240.6583,455.77 2241.2833,455.1919 L2241.2833,457.9106 Z " fill="#000000"/><text fill="#000000" font-family="sans-serif" font-size="14" lengthAdjust="spacing" textLength="77.1162" x="2258.8146" y="457.1167">Admin_Log</text><line style="stroke:#181818;stroke-width:0.5;" x1="2081.9" x2="2480.3453" y1="468.27" y2="468.27"/><text fill="#000000" font-family="sans-serif" font-size="14" lengthAdjust="spacing" textLength="165.9902" x="2086.9" y="485.2651">ID: UUID {primary key}</text><text fill="#000000" font-family="sans-serif" font-size="14" lengthAdjust="spacing" textLength="339.0215" x="2086.9" y="501.562">admin_ID: UUID {foreign key -&gt; Admin.user_ID}</text><text fill="#000000" font-family="sans-serif" font-size="14" lengthAdjust="spacing" textLength="323.5313" x="2086.9" y="517.8589">operation: ENUM {CREATE, UPDATE, DELETE}</text><text fill="#000000" font-family="sans-serif" font-size="14" lengthAdjust="spacing" textLength="371.0615" x="2086.9" y="534.1557">performed_by: UUID {foreign key -&gt; Admin.user_ID}</text><text fill="#000000" font-family="sans-serif" font-size="14" lengthAdjust="spacing" textLength="388.4453" x="2086.9" y="550.4526">timestamp: timestamp DEFAULT CURRENT_TIMESTAMP</text><text fill="#000000" font-family="sans-serif" font-size="14" lengthAdjust="spacing" textLength="83.6855" x="2086.9" y="566.7495">details: text</text><line style="stroke:#181818;stroke-width:0.5;" x1="2081.9" x2="2480.3453" y1="574.0513" y2="574.0513"/></g><!--class Process_Log--><g class="entity" data-entity="Process_Log" data-source-line="122" data-uid="ent0015" id="entity_Process_Log"><rect fill="#F1F1F1" height="145.7813" rx="2.5" ry="2.5" style="stroke:#181818;stroke-width:0.5;" width="457.0127" x="1642.61" y="691.64"/><ellipse cx="1823.9093" cy="707.64" fill="#ADD1B2" rx="11" ry="11" style="stroke:#181818;stroke-width:1;"/><path d="M1826.8781,713.2806 Q1826.2999,713.5775 1825.6593,713.7181 Q1825.0187,713.8744 1824.3156,713.8744 Q1821.8156,713.8744 1820.4874,712.2338 Q1819.1749,710.5775 1819.1749,707.4525 Q1819.1749,704.3275 1820.4874,702.6713 Q1821.8156,701.015 1824.3156,701.015 Q1825.0187,701.015 1825.6593,701.1713 Q1826.3156,701.3275 1826.8781,701.6244 L1826.8781,704.3431 Q1826.2531,703.765 1825.6593,703.4994 Q1825.0656,703.2181 1824.4406,703.2181 Q1823.0968,703.2181 1822.4093,704.2963 Q1821.7218,705.3588 1821.7218,707.4525 Q1821.7218,709.5463 1822.4093,710.6244 Q1823.0968,711.6869 1824.4406,711.6869 Q1825.0656,711.6869 1825.6593,711.4213 Q1826.2531,711.14 1826.8781,710.5619 L1826.8781,713.2806 Z " fill="#000000"/><text fill="#000000" font-family="sans-serif" font-size="14" lengthAdjust="spacing" textLength="85.9141" x="1844.4093" y="712.4867">Process_Log</text><line style="stroke:#181818;stroke-width:0.5;" x1="1643.61" x2="2098.6227" y1="723.64" y2="723.64"/><text fill="#000000" font-family="sans-serif" font-size="14" lengthAdjust="spacing" textLength="165.9902" x="1648.61" y="740.6351">ID: UUID {primary key}</text><text fill="#000000" font-family="sans-serif" font-size="14" lengthAdjust="spacing" textLength="320.5234" x="1648.61" y="756.932">process_ID: UUID {foreign key -&gt; Process.ID}</text><text fill="#000000" font-family="sans-serif" font-size="14" lengthAdjust="spacing" textLength="445.0127" x="1648.61" y="773.2289">operation: ENUM {CREATE, UPDATE, CLOSE, REOPEN, DELETE}</text><text fill="#000000" font-family="sans-serif" font-size="14" lengthAdjust="spacing" textLength="320.5713" x="1648.61" y="789.5257">performed_by: UUID {foreign key -&gt; User.ID}</text><text fill="#000000" font-family="sans-serif" font-size="14" lengthAdjust="spacing" textLength="388.4453" x="1648.61" y="805.8226">timestamp: timestamp DEFAULT CURRENT_TIMESTAMP</text><text fill="#000000" font-family="sans-serif" font-size="14" lengthAdjust="spacing" textLength="83.6855" x="1648.61" y="822.1195">details: text</text><line style="stroke:#181818;stroke-width:0.5;" x1="1643.61" x2="2098.6227" y1="829.4213" y2="829.4213"/></g><!--link User to Client--><g class="link" data-entity-1="User" data-entity-2="Client" data-source-line="136" data-uid="lnk16" id="link_User_Client"><path codeLine="136" d="M1726.64,122.78 C1616.25,149.11 1479.25,182.33 1357.12,213.49 C1351.71,214.87 1346.23,216.28 1340.69,217.71" fill="none" id="User-Client" style="stroke:#181818;stroke-width:1;"/><text fill="#000000" font-family="sans-serif" font-size="13" lengthAdjust="spacing" textLength="22.4834" x="1534.12" y="179.5569">is a</text><text fill="#000000" font-family="sans-serif" font-size="13" lengthAdjust="spacing" textLength="8.271" x="1710.8652" y="121.4139">1</text><text fill="#000000" font-family="sans-serif" font-size="13" lengthAdjust="spacing" textLength="24.8066" x="1342.5747" y="211.5627">0..1</text></g><!--link User to Lawyer--><g class="link" data-entity-1="User" data-entity-2="Lawyer" data-source-line="137" data-uid="lnk17" id="link_User_Lawyer"><path codeLine="137" d="M1853.04,136.76 C1819.94,161.38 1782.43,189.27 1750.42,213.08" fill="none" id="User-Lawyer" style="stroke:#181818;stroke-width:1;"/><text fill="#000000" font-family="sans-serif" font-size="13" lengthAdjust="spacing" textLength="22.4834" x="1808.12" y="179.5569">is a</text><text fill="#000000" font-family="sans-serif" font-size="13" lengthAdjust="spacing" textLength="8.271" x="1835.2026" y="156.7658">1</text><text fill="#000000" font-family="sans-serif" font-size="13" lengthAdjust="spacing" textLength="24.8066" x="1734.1832" y="202.2936">0..1</text></g><!--link User to Admin--><g class="link" data-entity-1="User" data-entity-2="Admin" data-source-line="138" data-uid="lnk18" id="link_User_Admin"><path codeLine="138" d="M2034.65,136.76 C2090.43,174.14 2157.47,219.06 2197.34,245.78" fill="none" id="User-Admin" style="stroke:#181818;stroke-width:1;"/><text fill="#000000" font-family="sans-serif" font-size="13" lengthAdjust="spacing" textLength="22.4834" x="2105.12" y="179.5569">is a</text><text fill="#000000" font-family="sans-serif" font-size="13" lengthAdjust="spacing" textLength="8.271" x="2036.6762" y="156.7658">1</text><text fill="#000000" font-family="sans-serif" font-size="13" lengthAdjust="spacing" textLength="24.8066" x="2162.0352" y="235.1118">0..1</text></g><!--link User to Notification--><g class="link" data-entity-1="User" data-entity-2="Notification" data-source-line="141" data-uid="lnk19" id="link_User_Notification"><path codeLine="141" d="M1966.66,136.68 C1976.09,160.46 1986.05,187.88 1993.12,213.49 C2041.32,387.94 1947.88,475.09 2063.12,614.64 C2089.43,646.5 2123.33,671.55 2160.18,691.24" fill="none" id="User-Notification" style="stroke:#181818;stroke-width:1;"/><text fill="#000000" font-family="sans-serif" font-size="13" lengthAdjust="spacing" textLength="54.5645" x="2009.12" y="369.7469">receives</text><text fill="#000000" font-family="sans-serif" font-size="13" lengthAdjust="spacing" textLength="8.271" x="1961.2498" y="156.677">1</text><text fill="#000000" font-family="sans-serif" font-size="13" lengthAdjust="spacing" textLength="23.0356" x="2107.9741" y="680.6129">0..*</text></g><!--link Process to Notification--><g class="link" data-entity-1="Process" data-entity-2="Notification" data-source-line="142" data-uid="lnk20" id="link_Process_Notification"><path codeLine="142" d="M1838.18,615.08 C1878.72,632.32 1921.24,648.74 1962.12,661.64 C2029.03,682.76 2048.36,677.68 2117.12,691.64 C2122.71,692.78 2128.34,693.93 2134.02,695.09" fill="none" id="Process-Notification" style="stroke:#181818;stroke-width:1;"/><text fill="#000000" font-family="sans-serif" font-size="13" lengthAdjust="spacing" textLength="38.0352" x="1963.12" y="657.7069">sends</text><text fill="#000000" font-family="sans-serif" font-size="13" lengthAdjust="spacing" textLength="8.271" x="1844.3694" y="634.7715">1</text><text fill="#000000" font-family="sans-serif" font-size="13" lengthAdjust="spacing" textLength="23.0356" x="2107.4124" y="689.0029">0..*</text></g><!--link Process to Documents--><g class="link" data-entity-1="Process" data-entity-2="Documents" data-source-line="145" data-uid="lnk21" id="link_Process_Documents"><path codeLine="145" d="M1392.89,608.58 C1386.93,610.67 1381,612.69 1375.12,614.64 C1239.56,659.62 1200.68,653.21 1063.12,691.64 C1054.26,694.12 1045.22,696.7 1036.1,699.35" fill="none" id="Process-Documents" style="stroke:#181818;stroke-width:1;"/><text fill="#000000" font-family="sans-serif" font-size="13" lengthAdjust="spacing" textLength="55.0278" x="1270.12" y="657.7069">contains</text><text fill="#000000" font-family="sans-serif" font-size="13" lengthAdjust="spacing" textLength="8.271" x="1377.2086" y="608.6651">1</text><text fill="#000000" font-family="sans-serif" font-size="13" lengthAdjust="spacing" textLength="23.0356" x="1032.8482" y="688.9284">0..*</text></g><!--link Client to Process--><g class="link" data-entity-1="Client" data-entity-2="Process" data-source-line="148" data-uid="lnk22" id="link_Client_Process"><path codeLine="148" d="M1339.38,327.08 C1362.61,336 1385.7,345.89 1407.12,356.68 C1433.61,370.02 1460.52,386.3 1485.93,403.18" fill="none" id="Client-Process" style="stroke:#181818;stroke-width:1;"/><text fill="#000000" font-family="sans-serif" font-size="13" lengthAdjust="spacing" textLength="59.8584" x="1434.12" y="369.7469">manages</text><text fill="#000000" font-family="sans-serif" font-size="13" lengthAdjust="spacing" textLength="8.271" x="1348.4708" y="345.0988">1</text><text fill="#000000" font-family="sans-serif" font-size="13" lengthAdjust="spacing" textLength="23.0356" x="1452.9408" y="392.6266">0..*</text></g><!--link Lawyer to Process--><g class="link" data-entity-1="Lawyer" data-entity-2="Process" data-source-line="149" data-uid="lnk23" id="link_Lawyer_Process"><path codeLine="149" d="M1662.86,326.97 C1657.85,349.83 1651.88,377.05 1646.11,403.36" fill="none" id="Lawyer-Process" style="stroke:#181818;stroke-width:1;"/><text fill="#000000" font-family="sans-serif" font-size="13" lengthAdjust="spacing" textLength="51.0796" x="1657.12" y="369.7469">handles</text><text fill="#000000" font-family="sans-serif" font-size="13" lengthAdjust="spacing" textLength="8.271" x="1652.8942" y="346.8921">1</text><text fill="#000000" font-family="sans-serif" font-size="13" lengthAdjust="spacing" textLength="23.0356" x="1623.9189" y="392.4648">0..*</text></g><!--reverse link Chat to Message--><g class="link" data-entity-1="Chat" data-entity-2="Message" data-source-line="152" data-uid="lnk24" id="link_Chat_Message"><path codeLine="152" d="M1075.422,571.8386 C1043.172,589.4786 1016.65,601.91 981.12,614.64 C819.31,672.62 770.03,654.87 602.12,691.64 C590.79,694.13 579.24,696.69 567.57,699.31" fill="none" id="Chat-backto-Message" style="stroke:#181818;stroke-width:1;"/><polygon fill="#181818" points="1085.95,566.08,1078.7665,565.45,1075.422,571.8386,1082.6055,572.4686,1085.95,566.08" style="stroke:#181818;stroke-width:1;"/><text fill="#000000" font-family="sans-serif" font-size="13" lengthAdjust="spacing" textLength="55.0278" x="882.12" y="657.7069">contains</text><text fill="#000000" font-family="sans-serif" font-size="13" lengthAdjust="spacing" textLength="8.271" x="1066.2453" y="586.0057">1</text><text fill="#000000" font-family="sans-serif" font-size="13" lengthAdjust="spacing" textLength="23.0356" x="571.3791" y="688.8843">0..*</text></g><!--link Client to Chat--><g class="link" data-entity-1="Client" data-entity-2="Chat" data-source-line="155" data-uid="lnk25" id="link_Client_Chat"><path codeLine="155" d="M1156.72,326.97 C1161.18,364.75 1167.05,414.45 1171.52,452.24" fill="none" id="Client-Chat" style="stroke:#181818;stroke-width:1;"/><text fill="#000000" font-family="sans-serif" font-size="13" lengthAdjust="spacing" textLength="33.5981" x="1163.12" y="369.7469">owns</text><text fill="#000000" font-family="sans-serif" font-size="13" lengthAdjust="spacing" textLength="8.271" x="1149.0529" y="346.8921">1</text><text fill="#000000" font-family="sans-serif" font-size="13" lengthAdjust="spacing" textLength="23.0356" x="1146.3158" y="441.4633">0..*</text></g><!--link Lawyer to Chat--><g class="link" data-entity-1="Lawyer" data-entity-2="Chat" data-source-line="156" data-uid="lnk26" id="link_Lawyer_Chat"><path codeLine="156" d="M1432.36,327.18 C1408.78,335.78 1385.65,345.58 1364.12,356.68 C1316,381.49 1268.79,420.16 1233.97,452.22" fill="none" id="Lawyer-Chat" style="stroke:#181818;stroke-width:1;"/><text fill="#000000" font-family="sans-serif" font-size="13" lengthAdjust="spacing" textLength="33.5981" x="1365.12" y="369.7469">owns</text><text fill="#000000" font-family="sans-serif" font-size="13" lengthAdjust="spacing" textLength="8.271" x="1395.8434" y="346.7235">1</text><text fill="#000000" font-family="sans-serif" font-size="13" lengthAdjust="spacing" textLength="23.0356" x="1216.3769" y="441.4409">0..*</text></g><!--link Client to Appointment--><g class="link" data-entity-1="Client" data-entity-2="Appointment" data-source-line="159" data-uid="lnk27" id="link_Client_Appointment"><path codeLine="159" d="M959.84,275.8 C751.31,285.46 436.31,314.8 361.12,403.68 C300.56,475.26 298.57,544.79 361.12,614.64 C465.96,731.72 909.49,663.6 1064.12,691.64 C1069.68,692.65 1075.28,693.71 1080.93,694.81" fill="none" id="Client-Appointment" style="stroke:#181818;stroke-width:1;"/><text fill="#000000" font-family="sans-serif" font-size="13" lengthAdjust="spacing" textLength="22.9785" x="362.12" y="513.7269">has</text><text fill="#000000" font-family="sans-serif" font-size="13" lengthAdjust="spacing" textLength="8.271" x="943.6494" y="272.7944">1</text><text fill="#000000" font-family="sans-serif" font-size="13" lengthAdjust="spacing" textLength="23.0356" x="1049.7756" y="689.5864">0..*</text></g><!--link Lawyer to Appointment--><g class="link" data-entity-1="Lawyer" data-entity-2="Appointment" data-source-line="160" data-uid="lnk28" id="link_Lawyer_Appointment"><path codeLine="160" d="M1791.46,327.1 C1821.67,347.14 1851.05,372.63 1870.12,403.68 C1930.56,502.08 1978.24,575.69 1901.12,661.64 C1859.92,707.57 1685.83,680.64 1625.12,691.64 C1619.3,692.7 1613.42,693.81 1607.5,694.97" fill="none" id="Lawyer-Appointment" style="stroke:#181818;stroke-width:1;"/><text fill="#000000" font-family="sans-serif" font-size="13" lengthAdjust="spacing" textLength="22.9785" x="1943.12" y="513.7269">has</text><text fill="#000000" font-family="sans-serif" font-size="13" lengthAdjust="spacing" textLength="8.271" x="1796.4644" y="346.6343">1</text><text fill="#000000" font-family="sans-serif" font-size="13" lengthAdjust="spacing" textLength="23.0356" x="1611.3595" y="688.8802">0..*</text></g><!--link Process to Appointment--><g class="link" data-entity-1="Process" data-entity-2="Appointment" data-source-line="161" data-uid="lnk29" id="link_Process_Appointment"><path codeLine="161" d="M1507.63,615.05 C1479.44,640.64 1449.91,667.46 1423.82,691.15" fill="none" id="Process-Appointment" style="stroke:#181818;stroke-width:1;"/><text fill="#000000" font-family="sans-serif" font-size="13" lengthAdjust="spacing" textLength="77.9683" x="1468.12" y="657.7069">is related to</text><text fill="#000000" font-family="sans-serif" font-size="13" lengthAdjust="spacing" textLength="24.8066" x="1475.0911" y="634.7395">0..1</text><text fill="#000000" font-family="sans-serif" font-size="13" lengthAdjust="spacing" textLength="23.0356" x="1407.3218" y="680.5143">0..*</text></g><!--reverse link Appointment to Appointment_Notes--><g class="link" data-entity-1="Appointment" data-entity-2="Appointment_Notes" data-source-line="162" data-uid="lnk30" id="link_Appointment_Appointment_Notes"><path codeLine="162" d="M1344.12,849.82 C1344.12,874.62 1344.12,890.18 1344.12,914.27" fill="none" id="Appointment-backto-Appointment_Notes" style="stroke:#181818;stroke-width:1;"/><polygon fill="#181818" points="1344.12,837.82,1340.12,843.82,1344.12,849.82,1348.12,843.82,1344.12,837.82" style="stroke:#181818;stroke-width:1;"/><text fill="#000000" font-family="sans-serif" font-size="13" lengthAdjust="spacing" textLength="36.061" x="1345.12" y="880.4969">notes</text><text fill="#000000" font-family="sans-serif" font-size="13" lengthAdjust="spacing" textLength="8.271" x="1335.7515" y="857.5935">1</text><text fill="#000000" font-family="sans-serif" font-size="13" lengthAdjust="spacing" textLength="23.0356" x="1319.8642" y="903.4252">0..*</text></g><!--link Client to Client_Log--><g class="link" data-entity-1="Client" data-entity-2="Client_Log" data-source-line="165" data-uid="lnk31" id="link_Client_Client_Log"><path codeLine="165" d="M1039.74,327.12 C975.69,359.63 894.33,400.94 825.49,435.88" fill="none" id="Client-Client_Log" style="stroke:#181818;stroke-width:1;"/><text fill="#000000" font-family="sans-serif" font-size="13" lengthAdjust="spacing" textLength="47.9185" x="974.12" y="369.7469">activity</text><text fill="#000000" font-family="sans-serif" font-size="13" lengthAdjust="spacing" textLength="8.271" x="1018.53" y="346.6566">1</text><text fill="#000000" font-family="sans-serif" font-size="13" lengthAdjust="spacing" textLength="23.0356" x="814.9651" y="425.2538">0..*</text></g><!--link Admin to Admin_Log--><g class="link" data-entity-1="Admin" data-entity-2="Admin_Log" data-source-line="166" data-uid="lnk32" id="link_Admin_Admin_Log"><path codeLine="166" d="M2236.91,294.25 C2243.63,326.75 2256.15,387.35 2266.16,435.77" fill="none" id="Admin-Admin_Log" style="stroke:#181818;stroke-width:1;"/><text fill="#000000" font-family="sans-serif" font-size="13" lengthAdjust="spacing" textLength="47.9185" x="2254.12" y="369.7469">activity</text><text fill="#000000" font-family="sans-serif" font-size="13" lengthAdjust="spacing" textLength="8.271" x="2229.1351" y="314.0526">1</text><text fill="#000000" font-family="sans-serif" font-size="13" lengthAdjust="spacing" textLength="23.0356" x="2240.6395" y="425.1333">0..*</text></g><!--link Process to Process_Log--><g class="link" data-entity-1="Process" data-entity-2="Process_Log" data-source-line="167" data-uid="lnk33" id="link_Process_Process_Log"><path codeLine="167" d="M1716.63,615.14 C1731.3,630.93 1746.47,646.87 1761.12,661.64 C1770.84,671.44 1781.24,681.55 1791.64,691.42" fill="none" id="Process-Process_Log" style="stroke:#181818;stroke-width:1;"/><text fill="#000000" font-family="sans-serif" font-size="13" lengthAdjust="spacing" textLength="54.6152" x="1762.12" y="657.7069">changes</text><text fill="#000000" font-family="sans-serif" font-size="13" lengthAdjust="spacing" textLength="8.271" x="1714.6528" y="634.8355">1</text><text fill="#000000" font-family="sans-serif" font-size="13" lengthAdjust="spacing" textLength="23.0356" x="1759.6863" y="680.5583">0..*</text></g><!--SRC=[pLXRRo8t57wVNt4KLI9iXoXvM5KPxKOYC57H4aYvj0_D5faP4wpCs5FR94kZzBVts7DX24o0TAk6bm7x7CyvttTkHjqpdX19OWWYebHJQycc2qqxWU13zXU5KyUfmUVg3-usfqfB4cYu98f2ovm3Co6XA-uOtw7ja5pPlX_6YafuSW0_dRO7ut6d3K-9P36HIxYdosUxHMF28Wyq_QPXtElyClQXrnz1Rzpjslq4ZteKCfpCYPfdSci2FHBJRUl9N73SU20oc1DvVFQn3gsV_TONEBOxy3VK_lZzj77-u-rju_PMVNtwoJtx-Fn3hUuyxyQf9IG5dskcbobALC5ndzE65WryWFzDKwwOu713jAQIrtU1bsBMYXZbEaDjWG1EjaBd6b8ek-Fc1pGkBDOddNOAQQzpvO5r-hoUOvgvZbk5ur-VpgsxHeM4eQHAfJZQ5QM9Nk22tnjVmrCpqEo1kj3Xn7vxXhP_rHntHr1BjsfMgOO2SogPLaYvctBhhbFeMiBSb1wOIH5RumteAGHTyhWi0kSD443jqwSku_SAfYIu1otIG3HH79aelhYelHMbH8ePeeIqacWYwHrJIEs4B-8fbQ-4yFy6PJEC6KSaYuKRAG9qO7TM1ZOEIyY_03kDqvECdbGdiiHLwwJ4hkk4L0MI9HeXBSLU82dHD9mGxK68tmg4MkF1mE-D9ktcoC_i5AeacC5D4pK9n8BZAiDiobWjhSF5PpXDEGqMKXfNpUwQU7cZ99z1E1aj4vfJsc8FXfmMeiWmD5nJ7X8XqI0NhaZC8epMlaOsKwVp5-IsGsTeWmNwWvL3vfKh7Eeh3jiYMCHes1ui9fcjbPHapXILOyOYTEgosxyi8jYaqr2ZMWWXapJGqH9HWlOb40MI_hcW252O9nLJc1Saz60gH4G9BvYRaKYbz2oII90m8qsp6FL9d6nGFEfS-yDHy_fcvNbFQ3PZ0J7HyXyuZywnvFMmBzUOGIuE0VevfLbEk5cSku05noPWZWssOMmAUbklsWEsSauSX5fhJlJxIVYiFXuNxtDNnvI2_1g98NTq3xlHkrUinjs2NqLv-9gvPNA7LXPv0PAsZ-EiCvjPoDfRtuDMPLmycB1caWYiG_5g47W7l1sSJIgOqt0HRKHiNenBst2n2KVztmLz2SC9bWswHx4a9PLABqld5fwIXPwBFUBA2dCqPbkelC7JNJCgpkmuxjp1Y4mZgWwPFoUe-jr3pwPLWaKJIpXSVJ63MPPJ4ciUlYXFA95GITA986kl0n_xlGlZcxPzjlskRvwTNhCrwloAQrcCKeacn8ZYT5d5dod8wv5TeBqVyEdKed4QowVbzN5hF-o85QqEiqqpzqJbVI2H3qbxON5mQTa9HQlR7-9ZuFTl_Dx1oApbw_V0P5UY3cXatL5pbkpCq-9UG7X08Rte7DiMXGarm4nITMWO7nJWn8dTIPgX3QUtC-yCHvpLcnohT7Hs18q679sUdE2tB24zs_Ys2MINisg1zCgHxQEnvPbDRIXyE5eVwZmpX56y0oadlwgyAcrQkZAloQK93rS3SiKPgm7QiysRC6xFi7VwtuIydqNYqScWM5VD3_GW9Xpd4-LaW5I9pT4WKtpDyMOEC_Pbiurox8hH_B1IpGUV5wQz62tDCKPxkvNsN0_48w-mhonW_lHPDJMr_SJoI6ASgZXtKwnW88sEAb6cqj34CDN2AU-zW6UphtksfLe_iDfKs5zgQnxOQpVJIoUDrHSk53My9BWzZif5plwJm97KVm00]--></g></svg>