<svg xmlns="http://www.w3.org/2000/svg" xmlns:xlink="http://www.w3.org/1999/xlink" contentStyleType="text/css" data-diagram-type="CLASS" height="730px" preserveAspectRatio="none" style="width:1279px;height:730px;background:#FFFFFF;" version="1.1" viewBox="0 0 1279 730" width="1279px" zoomAndPan="magnify"><defs/><g><!--class User--><g class="entity" data-entity="User" data-source-line="5" data-uid="ent0002" id="entity_User"><rect fill="#F1F1F1" height="96.8906" rx="2.5" ry="2.5" style="stroke:#181818;stroke-width:0.5;" width="177.9902" x="782.91" y="7"/><ellipse cx="851.7" cy="23" fill="#A9DCDF" rx="11" ry="11" style="stroke:#181818;stroke-width:1;"/><path d="M851.8094,18.3438 L850.6532,23.4219 L852.9813,23.4219 L851.8094,18.3438 Z M850.325,16.1094 L853.3094,16.1094 L856.6688,28.5 L854.2157,28.5 L853.45,25.4375 L850.1688,25.4375 L849.4188,28.5 L846.9813,28.5 L850.325,16.1094 Z " fill="#000000"/><text fill="#000000" font-family="sans-serif" font-size="14" font-style="italic" lengthAdjust="spacing" textLength="31.9102" x="872.2" y="27.8467">User</text><line style="stroke:#181818;stroke-width:0.5;" x1="783.91" x2="959.9002" y1="39" y2="39"/><text fill="#000000" font-family="sans-serif" font-size="14" lengthAdjust="spacing" textLength="165.9902" x="788.91" y="55.9951">ID: UUID {primary key}</text><text fill="#000000" font-family="sans-serif" font-size="14" lengthAdjust="spacing" textLength="75.6533" x="788.91" y="72.292">email: text</text><text fill="#000000" font-family="sans-serif" font-size="14" lengthAdjust="spacing" textLength="144.375" x="788.91" y="88.5889">password_hash: text</text><line style="stroke:#181818;stroke-width:0.5;" x1="783.91" x2="959.9002" y1="95.8906" y2="95.8906"/></g><!--class Client--><g class="entity" data-entity="Client" data-source-line="11" data-uid="ent0003" id="entity_Client"><rect fill="#F1F1F1" height="64.2969" rx="2.5" ry="2.5" style="stroke:#181818;stroke-width:0.5;" width="104.3535" x="522.73" y="173.04"/><ellipse cx="552.0505" cy="189.04" fill="#ADD1B2" rx="11" ry="11" style="stroke:#181818;stroke-width:1;"/><path d="M555.0192,194.6806 Q554.4411,194.9775 553.8005,195.1181 Q553.1598,195.2744 552.4567,195.2744 Q549.9567,195.2744 548.6286,193.6337 Q547.3161,191.9775 547.3161,188.8525 Q547.3161,185.7275 548.6286,184.0712 Q549.9567,182.415 552.4567,182.415 Q553.1598,182.415 553.8005,182.5712 Q554.4567,182.7275 555.0192,183.0244 L555.0192,185.7431 Q554.3942,185.165 553.8005,184.8994 Q553.2067,184.6181 552.5817,184.6181 Q551.238,184.6181 550.5505,185.6962 Q549.863,186.7587 549.863,188.8525 Q549.863,190.9462 550.5505,192.0244 Q551.238,193.0869 552.5817,193.0869 Q553.2067,193.0869 553.8005,192.8212 Q554.3942,192.54 555.0192,191.9619 L555.0192,194.6806 Z " fill="#000000"/><text fill="#000000" font-family="sans-serif" font-size="14" lengthAdjust="spacing" textLength="40.5303" x="569.2328" y="193.8867">Client</text><line style="stroke:#181818;stroke-width:0.5;" x1="523.73" x2="626.0835" y1="205.04" y2="205.04"/><text fill="#000000" font-family="sans-serif" font-size="14" lengthAdjust="spacing" textLength="92.3535" x="528.73" y="222.0351">address: text</text><line style="stroke:#181818;stroke-width:0.5;" x1="523.73" x2="626.0835" y1="229.3369" y2="229.3369"/></g><!--class Lawyer--><g class="entity" data-entity="Lawyer" data-source-line="12" data-uid="ent0005" id="entity_Lawyer"><rect fill="#F1F1F1" height="80.5938" rx="2.5" ry="2.5" style="stroke:#181818;stroke-width:0.5;" width="126.8848" x="706.46" y="164.89"/><ellipse cx="741.4406" cy="180.89" fill="#ADD1B2" rx="11" ry="11" style="stroke:#181818;stroke-width:1;"/><path d="M744.4094,186.5306 Q743.8312,186.8275 743.1906,186.9681 Q742.55,187.1244 741.8469,187.1244 Q739.3469,187.1244 738.0187,185.4838 Q736.7062,183.8275 736.7062,180.7025 Q736.7062,177.5775 738.0187,175.9213 Q739.3469,174.265 741.8469,174.265 Q742.55,174.265 743.1906,174.4213 Q743.8469,174.5775 744.4094,174.8744 L744.4094,177.5931 Q743.7844,177.015 743.1906,176.7494 Q742.5969,176.4681 741.9719,176.4681 Q740.6281,176.4681 739.9406,177.5463 Q739.2531,178.6088 739.2531,180.7025 Q739.2531,182.7963 739.9406,183.8744 Q740.6281,184.9369 741.9719,184.9369 Q742.5969,184.9369 743.1906,184.6713 Q743.7844,184.39 744.4094,183.8119 L744.4094,186.5306 Z " fill="#000000"/><text fill="#000000" font-family="sans-serif" font-size="14" lengthAdjust="spacing" textLength="50.4834" x="759.8808" y="185.7367">Lawyer</text><line style="stroke:#181818;stroke-width:0.5;" x1="707.46" x2="832.3448" y1="196.89" y2="196.89"/><text fill="#000000" font-family="sans-serif" font-size="14" lengthAdjust="spacing" textLength="114.8848" x="712.46" y="213.8851">description: text</text><text fill="#000000" font-family="sans-serif" font-size="14" lengthAdjust="spacing" textLength="77.4238" x="712.46" y="230.182">photo: text</text><line style="stroke:#181818;stroke-width:0.5;" x1="707.46" x2="832.3448" y1="237.4838" y2="237.4838"/></g><!--class Admin--><g class="entity" data-entity="Admin" data-source-line="13" data-uid="ent0007" id="entity_Admin"><rect fill="#F1F1F1" height="48" rx="2.5" ry="2.5" style="stroke:#181818;stroke-width:0.5;" width="76.8643" x="868.47" y="181.19"/><ellipse cx="883.47" cy="197.19" fill="#ADD1B2" rx="11" ry="11" style="stroke:#181818;stroke-width:1;"/><path d="M886.4388,202.8306 Q885.8606,203.1275 885.22,203.2681 Q884.5794,203.4244 883.8763,203.4244 Q881.3763,203.4244 880.0481,201.7837 Q878.7356,200.1275 878.7356,197.0025 Q878.7356,193.8775 880.0481,192.2212 Q881.3763,190.565 883.8763,190.565 Q884.5794,190.565 885.22,190.7212 Q885.8763,190.8775 886.4388,191.1744 L886.4388,193.8931 Q885.8138,193.315 885.22,193.0494 Q884.6263,192.7681 884.0013,192.7681 Q882.6575,192.7681 881.97,193.8462 Q881.2825,194.9087 881.2825,197.0025 Q881.2825,199.0962 881.97,200.1744 Q882.6575,201.2369 884.0013,201.2369 Q884.6263,201.2369 885.22,200.9712 Q885.8138,200.69 886.4388,200.1119 L886.4388,202.8306 Z " fill="#000000"/><text fill="#000000" font-family="sans-serif" font-size="14" lengthAdjust="spacing" textLength="44.8643" x="897.47" y="202.0367">Admin</text><line style="stroke:#181818;stroke-width:0.5;" x1="869.47" x2="944.3343" y1="213.19" y2="213.19"/><line style="stroke:#181818;stroke-width:0.5;" x1="869.47" x2="944.3343" y1="221.19" y2="221.19"/></g><!--class Process--><g class="entity" data-entity="Process" data-source-line="32" data-uid="ent0009" id="entity_Process"><rect fill="#F1F1F1" height="178.375" rx="2.5" ry="2.5" style="stroke:#181818;stroke-width:0.5;" width="321.8115" x="731" y="322.48"/><ellipse cx="860.8247" cy="338.48" fill="#ADD1B2" rx="11" ry="11" style="stroke:#181818;stroke-width:1;"/><path d="M863.7935,344.1206 Q863.2153,344.4175 862.5747,344.5581 Q861.9341,344.7144 861.231,344.7144 Q858.731,344.7144 857.4028,343.0737 Q856.0903,341.4175 856.0903,338.2925 Q856.0903,335.1675 857.4028,333.5112 Q858.731,331.855 861.231,331.855 Q861.9341,331.855 862.5747,332.0112 Q863.231,332.1675 863.7935,332.4644 L863.7935,335.1831 Q863.1685,334.605 862.5747,334.3394 Q861.981,334.0581 861.356,334.0581 Q860.0122,334.0581 859.3247,335.1362 Q858.6372,336.1987 858.6372,338.2925 Q858.6372,340.3862 859.3247,341.4644 Q860.0122,342.5269 861.356,342.5269 Q861.981,342.5269 862.5747,342.2612 Q863.1685,341.98 863.7935,341.4019 L863.7935,344.1206 Z " fill="#000000"/><text fill="#000000" font-family="sans-serif" font-size="14" lengthAdjust="spacing" textLength="53.6621" x="881.3247" y="343.3267">Process</text><line style="stroke:#181818;stroke-width:0.5;" x1="732" x2="1051.8115" y1="354.48" y2="354.48"/><text fill="#000000" font-family="sans-serif" font-size="14" lengthAdjust="spacing" textLength="165.9902" x="737" y="371.4751">ID: UUID {primary key}</text><text fill="#000000" font-family="sans-serif" font-size="14" lengthAdjust="spacing" textLength="291.7373" x="737" y="387.772">client_ID: UUID {foreign key -&gt; Client.ID}</text><text fill="#000000" font-family="sans-serif" font-size="14" lengthAdjust="spacing" textLength="309.8115" x="737" y="404.0689">lawyer_ID: UUID {foreign key -&gt; Lawyer.ID}</text><text fill="#000000" font-family="sans-serif" font-size="14" lengthAdjust="spacing" textLength="114.8848" x="737" y="420.3657">description: text</text><text fill="#000000" font-family="sans-serif" font-size="14" lengthAdjust="spacing" textLength="115.4385" x="737" y="436.6626">created_at: date</text><text fill="#000000" font-family="sans-serif" font-size="14" lengthAdjust="spacing" textLength="106.75" x="737" y="452.9595">closed_at: date</text><text fill="#000000" font-family="sans-serif" font-size="14" lengthAdjust="spacing" textLength="111.4941" x="737" y="469.2564">steps_count: int</text><text fill="#000000" font-family="sans-serif" font-size="14" lengthAdjust="spacing" textLength="115.7598" x="737" y="485.5532">current_step: int</text><line style="stroke:#181818;stroke-width:0.5;" x1="732" x2="1051.8115" y1="492.855" y2="492.855"/></g><!--class Documents--><g class="entity" data-entity="Documents" data-source-line="43" data-uid="ent0010" id="entity_Documents"><rect fill="#F1F1F1" height="96.8906" rx="2.5" ry="2.5" style="stroke:#181818;stroke-width:0.5;" width="332.5234" x="571.64" y="602.3"/><ellipse cx="693.7401" cy="618.3" fill="#ADD1B2" rx="11" ry="11" style="stroke:#181818;stroke-width:1;"/><path d="M696.7088,623.9406 Q696.1307,624.2375 695.4901,624.3781 Q694.8495,624.5344 694.1463,624.5344 Q691.6463,624.5344 690.3182,622.8938 Q689.0057,621.2375 689.0057,618.1125 Q689.0057,614.9875 690.3182,613.3313 Q691.6463,611.675 694.1463,611.675 Q694.8495,611.675 695.4901,611.8313 Q696.1463,611.9875 696.7088,612.2844 L696.7088,615.0031 Q696.0838,614.425 695.4901,614.1594 Q694.8963,613.8781 694.2713,613.8781 Q692.9276,613.8781 692.2401,614.9563 Q691.5526,616.0188 691.5526,618.1125 Q691.5526,620.2063 692.2401,621.2844 Q692.9276,622.3469 694.2713,622.3469 Q694.8963,622.3469 695.4901,622.0813 Q696.0838,621.8 696.7088,621.2219 L696.7088,623.9406 Z " fill="#000000"/><text fill="#000000" font-family="sans-serif" font-size="14" lengthAdjust="spacing" textLength="79.8232" x="714.2401" y="623.1467">Documents</text><line style="stroke:#181818;stroke-width:0.5;" x1="572.64" x2="903.1634" y1="634.3" y2="634.3"/><text fill="#000000" font-family="sans-serif" font-size="14" lengthAdjust="spacing" textLength="165.9902" x="577.64" y="651.2951">ID: UUID {primary key}</text><text fill="#000000" font-family="sans-serif" font-size="14" lengthAdjust="spacing" textLength="320.5234" x="577.64" y="667.592">process_ID: UUID {foreign key -&gt; Process.ID}</text><text fill="#000000" font-family="sans-serif" font-size="14" lengthAdjust="spacing" textLength="97.1934" x="577.64" y="683.8889">file_path: text</text><line style="stroke:#181818;stroke-width:0.5;" x1="572.64" x2="903.1634" y1="691.1906" y2="691.1906"/></g><!--class Notification--><g class="entity" data-entity="Notification" data-source-line="49" data-uid="ent0011" id="entity_Notification"><rect fill="#F1F1F1" height="129.4844" rx="2.5" ry="2.5" style="stroke:#181818;stroke-width:0.5;" width="332.5234" x="939.64" y="586.01"/><ellipse cx="1061.4872" cy="602.01" fill="#ADD1B2" rx="11" ry="11" style="stroke:#181818;stroke-width:1;"/><path d="M1064.4559,607.6506 Q1063.8778,607.9475 1063.2372,608.0881 Q1062.5965,608.2444 1061.8934,608.2444 Q1059.3934,608.2444 1058.0653,606.6038 Q1056.7528,604.9475 1056.7528,601.8225 Q1056.7528,598.6975 1058.0653,597.0413 Q1059.3934,595.385 1061.8934,595.385 Q1062.5965,595.385 1063.2372,595.5413 Q1063.8934,595.6975 1064.4559,595.9944 L1064.4559,598.7131 Q1063.8309,598.135 1063.2372,597.8694 Q1062.6434,597.5881 1062.0184,597.5881 Q1060.6747,597.5881 1059.9872,598.6663 Q1059.2997,599.7288 1059.2997,601.8225 Q1059.2997,603.9163 1059.9872,604.9944 Q1060.6747,606.0569 1062.0184,606.0569 Q1062.6434,606.0569 1063.2372,605.7913 Q1063.8309,605.51 1064.4559,604.9319 L1064.4559,607.6506 Z " fill="#000000"/><text fill="#000000" font-family="sans-serif" font-size="14" lengthAdjust="spacing" textLength="80.3291" x="1081.9872" y="606.8567">Notification</text><line style="stroke:#181818;stroke-width:0.5;" x1="940.64" x2="1271.1634" y1="618.01" y2="618.01"/><text fill="#000000" font-family="sans-serif" font-size="14" lengthAdjust="spacing" textLength="165.9902" x="945.64" y="635.0051">ID: UUID {primary key}</text><text fill="#000000" font-family="sans-serif" font-size="14" lengthAdjust="spacing" textLength="320.5234" x="945.64" y="651.302">process_ID: UUID {foreign key -&gt; Process.ID}</text><text fill="#000000" font-family="sans-serif" font-size="14" lengthAdjust="spacing" textLength="291.7373" x="945.64" y="667.5989">client_ID: UUID {foreign key -&gt; Client.ID}</text><text fill="#000000" font-family="sans-serif" font-size="14" lengthAdjust="spacing" textLength="90.6445" x="945.64" y="683.8957">content: text</text><text fill="#000000" font-family="sans-serif" font-size="14" lengthAdjust="spacing" textLength="115.1582" x="945.64" y="700.1926">is_read: boolean</text><line style="stroke:#181818;stroke-width:0.5;" x1="940.64" x2="1271.1634" y1="707.4944" y2="707.4944"/></g><!--class Chat--><g class="entity" data-entity="Chat" data-source-line="57" data-uid="ent0012" id="entity_Chat"><rect fill="#F1F1F1" height="96.8906" rx="2.5" ry="2.5" style="stroke:#181818;stroke-width:0.5;" width="321.8115" x="7" y="363.23"/><ellipse cx="147.2974" cy="379.23" fill="#ADD1B2" rx="11" ry="11" style="stroke:#181818;stroke-width:1;"/><path d="M150.2661,384.8706 Q149.688,385.1675 149.0474,385.3081 Q148.4067,385.4644 147.7036,385.4644 Q145.2036,385.4644 143.8755,383.8237 Q142.563,382.1675 142.563,379.0425 Q142.563,375.9175 143.8755,374.2612 Q145.2036,372.605 147.7036,372.605 Q148.4067,372.605 149.0474,372.7612 Q149.7036,372.9175 150.2661,373.2144 L150.2661,375.9331 Q149.6411,375.355 149.0474,375.0894 Q148.4536,374.8081 147.8286,374.8081 Q146.4849,374.8081 145.7974,375.8862 Q145.1099,376.9487 145.1099,379.0425 Q145.1099,381.1362 145.7974,382.2144 Q146.4849,383.2769 147.8286,383.2769 Q148.4536,383.2769 149.0474,383.0112 Q149.6411,382.73 150.2661,382.1519 L150.2661,384.8706 Z " fill="#000000"/><text fill="#000000" font-family="sans-serif" font-size="14" lengthAdjust="spacing" textLength="32.7168" x="167.7974" y="384.0767">Chat</text><line style="stroke:#181818;stroke-width:0.5;" x1="8" x2="327.8115" y1="395.23" y2="395.23"/><text fill="#000000" font-family="sans-serif" font-size="14" lengthAdjust="spacing" textLength="165.9902" x="13" y="412.2251">ID: UUID {primary key}</text><text fill="#000000" font-family="sans-serif" font-size="14" lengthAdjust="spacing" textLength="291.7373" x="13" y="428.522">client_ID: UUID {foreign key -&gt; Client.ID}</text><text fill="#000000" font-family="sans-serif" font-size="14" lengthAdjust="spacing" textLength="309.8115" x="13" y="444.8189">lawyer_ID: UUID {foreign key -&gt; Lawyer.ID}</text><line style="stroke:#181818;stroke-width:0.5;" x1="8" x2="327.8115" y1="452.1206" y2="452.1206"/></g><!--class Message--><g class="entity" data-entity="Message" data-source-line="63" data-uid="ent0013" id="entity_Message"><rect fill="#F1F1F1" height="145.7813" rx="2.5" ry="2.5" style="stroke:#181818;stroke-width:0.5;" width="313.8887" x="10.96" y="577.86"/><ellipse cx="132.9746" cy="593.86" fill="#ADD1B2" rx="11" ry="11" style="stroke:#181818;stroke-width:1;"/><path d="M135.9434,599.5006 Q135.3653,599.7975 134.7246,599.9381 Q134.084,600.0944 133.3809,600.0944 Q130.8809,600.0944 129.5528,598.4538 Q128.2403,596.7975 128.2403,593.6725 Q128.2403,590.5475 129.5528,588.8913 Q130.8809,587.235 133.3809,587.235 Q134.084,587.235 134.7246,587.3913 Q135.3809,587.5475 135.9434,587.8444 L135.9434,590.5631 Q135.3184,589.985 134.7246,589.7194 Q134.1309,589.4381 133.5059,589.4381 Q132.1621,589.4381 131.4746,590.5163 Q130.7871,591.5788 130.7871,593.6725 Q130.7871,595.7663 131.4746,596.8444 Q132.1621,597.9069 133.5059,597.9069 Q134.1309,597.9069 134.7246,597.6413 Q135.3184,597.36 135.9434,596.7819 L135.9434,599.5006 Z " fill="#000000"/><text fill="#000000" font-family="sans-serif" font-size="14" lengthAdjust="spacing" textLength="61.3594" x="153.4746" y="598.7067">Message</text><line style="stroke:#181818;stroke-width:0.5;" x1="11.96" x2="323.8487" y1="609.86" y2="609.86"/><text fill="#000000" font-family="sans-serif" font-size="14" lengthAdjust="spacing" textLength="165.9902" x="16.96" y="626.8551">ID: UUID {primary key}</text><text fill="#000000" font-family="sans-serif" font-size="14" lengthAdjust="spacing" textLength="276.1104" x="16.96" y="643.152">chat_ID: UUID {foreign key -&gt; Chat.ID}</text><text fill="#000000" font-family="sans-serif" font-size="14" lengthAdjust="spacing" textLength="292.7012" x="16.96" y="659.4489">sender_ID: UUID {foreign key -&gt; User.ID}</text><text fill="#000000" font-family="sans-serif" font-size="14" lengthAdjust="spacing" textLength="301.8887" x="16.96" y="675.7457">receiver_ID: UUID {foreign key -&gt; User.ID}</text><text fill="#000000" font-family="sans-serif" font-size="14" lengthAdjust="spacing" textLength="90.6445" x="16.96" y="692.0426">content: text</text><text fill="#000000" font-family="sans-serif" font-size="14" lengthAdjust="spacing" textLength="92.0732" x="16.96" y="708.3395">sent_at: date</text><line style="stroke:#181818;stroke-width:0.5;" x1="11.96" x2="323.8487" y1="715.6413" y2="715.6413"/></g><!--class Appointment--><g class="entity" data-entity="Appointment" data-source-line="72" data-uid="ent0014" id="entity_Appointment"><rect fill="#F1F1F1" height="129.4844" rx="2.5" ry="2.5" style="stroke:#181818;stroke-width:0.5;" width="332.5234" x="363.64" y="346.93"/><ellipse cx="480.2611" cy="362.93" fill="#ADD1B2" rx="11" ry="11" style="stroke:#181818;stroke-width:1;"/><path d="M483.2298,368.5706 Q482.6517,368.8675 482.0111,369.0081 Q481.3705,369.1644 480.6673,369.1644 Q478.1673,369.1644 476.8392,367.5238 Q475.5267,365.8675 475.5267,362.7425 Q475.5267,359.6175 476.8392,357.9613 Q478.1673,356.305 480.6673,356.305 Q481.3705,356.305 482.0111,356.4613 Q482.6673,356.6175 483.2298,356.9144 L483.2298,359.6331 Q482.6048,359.055 482.0111,358.7894 Q481.4173,358.5081 480.7923,358.5081 Q479.4486,358.5081 478.7611,359.5863 Q478.0736,360.6488 478.0736,362.7425 Q478.0736,364.8363 478.7611,365.9144 Q479.4486,366.9769 480.7923,366.9769 Q481.4173,366.9769 482.0111,366.7113 Q482.6048,366.43 483.2298,365.8519 L483.2298,368.5706 Z " fill="#000000"/><text fill="#000000" font-family="sans-serif" font-size="14" lengthAdjust="spacing" textLength="90.7813" x="500.7611" y="367.7767">Appointment</text><line style="stroke:#181818;stroke-width:0.5;" x1="364.64" x2="695.1634" y1="378.93" y2="378.93"/><text fill="#000000" font-family="sans-serif" font-size="14" lengthAdjust="spacing" textLength="165.9902" x="369.64" y="395.9251">ID: UUID {primary key}</text><text fill="#000000" font-family="sans-serif" font-size="14" lengthAdjust="spacing" textLength="291.7373" x="369.64" y="412.222">client_ID: UUID {foreign key -&gt; Client.ID}</text><text fill="#000000" font-family="sans-serif" font-size="14" lengthAdjust="spacing" textLength="309.8115" x="369.64" y="428.5189">lawyer_ID: UUID {foreign key -&gt; Lawyer.ID}</text><text fill="#000000" font-family="sans-serif" font-size="14" lengthAdjust="spacing" textLength="320.5234" x="369.64" y="444.8157">process_ID: UUID {foreign key -&gt; Process.ID}</text><text fill="#000000" font-family="sans-serif" font-size="14" lengthAdjust="spacing" textLength="165.0605" x="369.64" y="461.1126">scheduled_at: datetime</text><line style="stroke:#181818;stroke-width:0.5;" x1="364.64" x2="695.1634" y1="468.4144" y2="468.4144"/></g><!--reverse link User to Client--><g class="link" data-entity-1="User" data-entity-2="Client" data-source-line="11" data-uid="lnk4" id="link_User_Client"><path codeLine="11" d="M766.6845,108.7881 C715.9345,134.0381 670.22,156.77 627.25,178.15" fill="none" id="User-backto-Client" style="stroke:#181818;stroke-width:1;"/><polygon fill="none" points="782.8,100.77,764.0118,103.4162,769.3572,114.1599,782.8,100.77" style="stroke:#181818;stroke-width:1;"/></g><!--reverse link User to Lawyer--><g class="link" data-entity-1="User" data-entity-2="Lawyer" data-source-line="12" data-uid="lnk6" id="link_User_Lawyer"><path codeLine="12" d="M828.8439,118.8131 C815.3339,138.3831 810.09,145.98 797.21,164.63" fill="none" id="User-backto-Lawyer" style="stroke:#181818;stroke-width:1;"/><polygon fill="none" points="839.07,104,823.9062,115.4044,833.7816,122.2218,839.07,104" style="stroke:#181818;stroke-width:1;"/></g><!--reverse link User to Admin--><g class="link" data-entity-1="User" data-entity-2="Admin" data-source-line="13" data-uid="lnk8" id="link_User_Admin"><path codeLine="13" d="M887.3216,121.5147 C893.4016,147.1647 896.48,160.16 901.35,180.72" fill="none" id="User-backto-Admin" style="stroke:#181818;stroke-width:1;"/><polygon fill="none" points="883.17,104,881.4834,122.8986,893.1599,120.1308,883.17,104" style="stroke:#181818;stroke-width:1;"/></g><!--link User to Notification--><g class="link" data-entity-1="User" data-entity-2="Notification" data-source-line="85" data-uid="lnk15" id="link_User_Notification"><path codeLine="85" d="M921.12,104.15 C968.68,153.73 1038.06,236.04 1069.91,322.48 C1102.02,409.64 1107.87,518.01 1107.86,585.55" fill="none" id="User-Notification" style="stroke:#181818;stroke-width:1;"/><text fill="#000000" font-family="sans-serif" font-size="13" lengthAdjust="spacing" textLength="54.5645" x="1057.91" y="288.5469">receives</text><text fill="#000000" font-family="sans-serif" font-size="13" lengthAdjust="spacing" textLength="8.271" x="919.4974" y="124.13">1</text><text fill="#000000" font-family="sans-serif" font-size="13" lengthAdjust="spacing" textLength="23.0356" x="1083.8778" y="575.1263">0..*</text></g><!--link Process to Notification--><g class="link" data-entity-1="Process" data-entity-2="Notification" data-source-line="86" data-uid="lnk16" id="link_Process_Notification"><path codeLine="86" d="M971.9,501.29 C997.18,529.3 1024.62,559.7 1048.05,585.65" fill="none" id="Process-Notification" style="stroke:#181818;stroke-width:1;"/><text fill="#000000" font-family="sans-serif" font-size="13" lengthAdjust="spacing" textLength="38.0352" x="1011.91" y="543.9269">sends</text><text fill="#000000" font-family="sans-serif" font-size="13" lengthAdjust="spacing" textLength="8.271" x="969.7287" y="520.7979">1</text><text fill="#000000" font-family="sans-serif" font-size="13" lengthAdjust="spacing" textLength="23.0356" x="1017.4666" y="574.7833">0..*</text></g><!--reverse link Process to Documents--><g class="link" data-entity-1="Process" data-entity-2="Documents" data-source-line="89" data-uid="lnk17" id="link_Process_Documents"><path codeLine="89" d="M827.8029,511.3531 C805.5929,545.5431 787.61,573.23 768.85,602.11" fill="none" id="Process-backto-Documents" style="stroke:#181818;stroke-width:1;"/><polygon fill="#181818" points="834.34,501.29,827.7171,504.1425,827.8029,511.3531,834.4258,508.5006,834.34,501.29" style="stroke:#181818;stroke-width:1;"/><text fill="#000000" font-family="sans-serif" font-size="13" lengthAdjust="spacing" textLength="55.0278" x="815.91" y="543.9269">contains</text><text fill="#000000" font-family="sans-serif" font-size="13" lengthAdjust="spacing" textLength="8.271" x="821.6367" y="520.7979">1</text><text fill="#000000" font-family="sans-serif" font-size="13" lengthAdjust="spacing" textLength="23.0356" x="748.5874" y="591.2922">0..*</text></g><!--link Client to Process--><g class="link" data-entity-1="Client" data-entity-2="Process" data-source-line="92" data-uid="lnk18" id="link_Client_Process"><path codeLine="92" d="M602.26,237.75 C618.46,255.25 640.04,276.61 661.91,292.48 C669.56,298.04 697.08,312.74 730.57,329.96" fill="none" id="Client-Process" style="stroke:#181818;stroke-width:1;"/><text fill="#000000" font-family="sans-serif" font-size="13" lengthAdjust="spacing" textLength="59.8584" x="662.91" y="288.5469">manages</text><text fill="#000000" font-family="sans-serif" font-size="13" lengthAdjust="spacing" textLength="8.271" x="598.7375" y="257.4663">1</text><text fill="#000000" font-family="sans-serif" font-size="13" lengthAdjust="spacing" textLength="23.0356" x="699.7392" y="322.9877">0..*</text></g><!--link Lawyer to Process--><g class="link" data-entity-1="Lawyer" data-entity-2="Process" data-source-line="93" data-uid="lnk19" id="link_Lawyer_Process"><path codeLine="93" d="M793.43,245.61 C806.45,267.43 823.18,295.48 839.15,322.24" fill="none" id="Lawyer-Process" style="stroke:#181818;stroke-width:1;"/><text fill="#000000" font-family="sans-serif" font-size="13" lengthAdjust="spacing" textLength="51.0796" x="821.91" y="288.5469">handles</text><text fill="#000000" font-family="sans-serif" font-size="13" lengthAdjust="spacing" textLength="8.271" x="788.6867" y="265.6252">1</text><text fill="#000000" font-family="sans-serif" font-size="13" lengthAdjust="spacing" textLength="23.0356" x="810.8303" y="311.2856">0..*</text></g><!--reverse link Chat to Message--><g class="link" data-entity-1="Chat" data-entity-2="Message" data-source-line="96" data-uid="lnk20" id="link_Chat_Message"><path codeLine="96" d="M167.91,472.36 C167.91,505.9 167.91,539.38 167.91,577.37" fill="none" id="Chat-backto-Message" style="stroke:#181818;stroke-width:1;"/><polygon fill="#181818" points="167.91,460.36,163.91,466.36,167.91,472.36,171.91,466.36,167.91,460.36" style="stroke:#181818;stroke-width:1;"/><text fill="#000000" font-family="sans-serif" font-size="13" lengthAdjust="spacing" textLength="55.0278" x="168.91" y="543.9269">contains</text><text fill="#000000" font-family="sans-serif" font-size="13" lengthAdjust="spacing" textLength="8.271" x="159.3672" y="480.3372">1</text><text fill="#000000" font-family="sans-serif" font-size="13" lengthAdjust="spacing" textLength="23.0356" x="143.8161" y="566.7343">0..*</text></g><!--link Client to Chat--><g class="link" data-entity-1="Client" data-entity-2="Chat" data-source-line="99" data-uid="lnk21" id="link_Client_Chat"><path codeLine="99" d="M522.53,232.5 C457.16,265.35 344.11,322.14 263.22,362.78" fill="none" id="Client-Chat" style="stroke:#181818;stroke-width:1;"/><text fill="#000000" font-family="sans-serif" font-size="13" lengthAdjust="spacing" textLength="33.5981" x="432.91" y="288.5469">owns</text><text fill="#000000" font-family="sans-serif" font-size="13" lengthAdjust="spacing" textLength="8.271" x="506.6211" y="232.3622">1</text><text fill="#000000" font-family="sans-serif" font-size="13" lengthAdjust="spacing" textLength="23.0356" x="251.4849" y="352.2777">0..*</text></g><!--link Lawyer to Chat--><g class="link" data-entity-1="Lawyer" data-entity-2="Chat" data-source-line="100" data-uid="lnk22" id="link_Lawyer_Chat"><path codeLine="100" d="M706.11,232 C644.15,257.05 558.85,291.43 554.91,292.48 C464.27,316.8 435.52,294.64 345.91,322.48 C313.63,332.51 279.98,347.79 250.74,362.82" fill="none" id="Lawyer-Chat" style="stroke:#181818;stroke-width:1;"/><text fill="#000000" font-family="sans-serif" font-size="13" lengthAdjust="spacing" textLength="33.5981" x="594.91" y="288.5469">owns</text><text fill="#000000" font-family="sans-serif" font-size="13" lengthAdjust="spacing" textLength="8.271" x="690.2872" y="231.3077">1</text><text fill="#000000" font-family="sans-serif" font-size="13" lengthAdjust="spacing" textLength="23.0356" x="237.3279" y="352.3231">0..*</text></g><!--link Client to Appointment--><g class="link" data-entity-1="Client" data-entity-2="Appointment" data-source-line="103" data-uid="lnk23" id="link_Client_Appointment"><path codeLine="103" d="M547.26,237.5 C539.06,248.7 531.14,261.93 526.91,275.48 C519.87,298 518.82,323.68 520.14,346.56" fill="none" id="Client-Appointment" style="stroke:#181818;stroke-width:1;"/><text fill="#000000" font-family="sans-serif" font-size="13" lengthAdjust="spacing" textLength="22.9785" x="527.91" y="288.5469">has</text><text fill="#000000" font-family="sans-serif" font-size="13" lengthAdjust="spacing" textLength="8.271" x="533.0562" y="257.4179">1</text><text fill="#000000" font-family="sans-serif" font-size="13" lengthAdjust="spacing" textLength="23.0356" x="494.8164" y="335.6922">0..*</text></g><!--link Lawyer to Appointment--><g class="link" data-entity-1="Lawyer" data-entity-2="Appointment" data-source-line="104" data-uid="lnk24" id="link_Lawyer_Appointment"><path codeLine="104" d="M757.94,245.68 C751.73,261.53 742.88,279.15 730.91,292.48 C712.38,313.11 689.37,331.16 665.61,346.54" fill="none" id="Lawyer-Appointment" style="stroke:#181818;stroke-width:1;"/><text fill="#000000" font-family="sans-serif" font-size="13" lengthAdjust="spacing" textLength="22.9785" x="744.91" y="288.5469">has</text><text fill="#000000" font-family="sans-serif" font-size="13" lengthAdjust="spacing" textLength="8.271" x="747.4176" y="265.4064">1</text><text fill="#000000" font-family="sans-serif" font-size="13" lengthAdjust="spacing" textLength="23.0356" x="656.1972" y="335.67">0..*</text></g><!--SRC=[nLLDZzem4BtdLuouqAuMr5wZTgKjN93QLLK9zHWPUo3M9dRaSPQYxVxt-YCaWIN07ghD2SPldjzyUWnVXxza3BE24I41Km8MAaSZBLCStSavluIjo1h6BN3l3qj20yy9k6ynJs6vNCpXkJAoP6O7ZxXx2KTOCbcaOF6F3VyhvxhLHcGvexonloH98FloTp9nuYGgspDyPziTcfxXNfHI9KbK4U6D3YQ4GQAEDc8YGuCHIDp8oagj-h9oRVMnNxYeSHl3WmQgaCkrvC2iDN9LMvV49qboLI0ufCqHX6GRmqfFChvK1cqGljKa5OP0Gb4k5I4g-saqzquNqyz3Uh8EiNQNoeto29ZSDUcRBkOHNeHC3SDZ9bluwLnoWyoYo9XDGRXVZH1DnpQoM576TQsSLQh6kpR6I_Q7qThMOwvvNRgpA-AkOeA68saos8QobWLc5RFvSHCyQEjBpdoG_-7UDnQ8QsNHfwlDjgJCvLkaiDAwGAOwvRESsVVia5R83nSms-0LMfpYCqhSQQk3K8bpElowQC46ESgdg-6laqm-HMtlTWkYghJhqBBRGEysYczkFE8vYhhepQIL9LwpjtvX4QQ1Sbd5H-IUI7CPZPSMsFXWeYZkzT7d4RZDFleqdTwC3aSktLUFaltMEulsZK7-cZtQ2smtnm77JKVIhPOqb9z95KZ2ZlwjpUEwqDkaUMmExzypfb0ovTgSakQz6OBbJb61aTwFg1VOZ0Z1XvakAqtIH_Cn2UT7KlVJT2GqIBjjsk8sa7hlqve3RmfwgmRKzW6ElTVeT9gnFme-n07ULx1_]--></g></svg>