<svg xmlns="http://www.w3.org/2000/svg" xmlns:xlink="http://www.w3.org/1999/xlink" contentStyleType="text/css" data-diagram-type="CLASS" height="600px" preserveAspectRatio="none" style="width:814px;height:600px;background:#FFFFFF;" version="1.1" viewBox="0 0 814 600" width="814px" zoomAndPan="magnify"><defs/><g><!--class User--><g class="entity" data-entity="User" data-source-line="7" data-uid="ent0002" id="entity_User"><rect fill="#F1F1F1" height="80.5938" rx="2.5" ry="2.5" style="stroke:#181818;stroke-width:0.5;" width="141.3906" x="447.57" y="7"/><ellipse cx="498.0602" cy="23" fill="#A9DCDF" rx="11" ry="11" style="stroke:#181818;stroke-width:1;"/><path d="M498.1696,18.3438 L497.0134,23.4219 L499.3415,23.4219 L498.1696,18.3438 Z M496.6852,16.1094 L499.6696,16.1094 L503.029,28.5 L500.5759,28.5 L499.8102,25.4375 L496.529,25.4375 L495.779,28.5 L493.3415,28.5 L496.6852,16.1094 Z " fill="#000000"/><text fill="#000000" font-family="sans-serif" font-size="14" font-style="italic" lengthAdjust="spacing" textLength="31.9102" x="518.5602" y="27.8467">User</text><line style="stroke:#181818;stroke-width:0.5;" x1="448.57" x2="587.9606" y1="39" y2="39"/><text fill="#000000" font-family="sans-serif" font-size="14" lengthAdjust="spacing" textLength="101.2881" x="453.57" y="55.9951">+email: String</text><text fill="#000000" font-family="sans-serif" font-size="14" lengthAdjust="spacing" textLength="129.3906" x="453.57" y="72.292">+password: String</text><line style="stroke:#181818;stroke-width:0.5;" x1="448.57" x2="587.9606" y1="79.5938" y2="79.5938"/></g><!--class Client--><g class="entity" data-entity="Client" data-source-line="12" data-uid="ent0003" id="entity_Client"><rect fill="#F1F1F1" height="64.2969" rx="2.5" ry="2.5" style="stroke:#181818;stroke-width:0.5;" width="129.9883" x="315.28" y="156.75"/><ellipse cx="356.1361" cy="172.75" fill="#ADD1B2" rx="11" ry="11" style="stroke:#181818;stroke-width:1;"/><path d="M359.1049,178.3906 Q358.5267,178.6875 357.8861,178.8281 Q357.2455,178.9844 356.5424,178.9844 Q354.0424,178.9844 352.7142,177.3438 Q351.4017,175.6875 351.4017,172.5625 Q351.4017,169.4375 352.7142,167.7813 Q354.0424,166.125 356.5424,166.125 Q357.2455,166.125 357.8861,166.2813 Q358.5424,166.4375 359.1049,166.7344 L359.1049,169.4531 Q358.4799,168.875 357.8861,168.6094 Q357.2924,168.3281 356.6674,168.3281 Q355.3236,168.3281 354.6361,169.4063 Q353.9486,170.4688 353.9486,172.5625 Q353.9486,174.6563 354.6361,175.7344 Q355.3236,176.7969 356.6674,176.7969 Q357.2924,176.7969 357.8861,176.5313 Q358.4799,176.25 359.1049,175.6719 L359.1049,178.3906 Z " fill="#000000"/><text fill="#000000" font-family="sans-serif" font-size="14" lengthAdjust="spacing" textLength="40.5303" x="375.8819" y="177.5967">Client</text><line style="stroke:#181818;stroke-width:0.5;" x1="316.28" x2="444.2683" y1="188.75" y2="188.75"/><text fill="#000000" font-family="sans-serif" font-size="14" lengthAdjust="spacing" textLength="117.9883" x="321.28" y="205.7451">+address: String</text><line style="stroke:#181818;stroke-width:0.5;" x1="316.28" x2="444.2683" y1="213.0469" y2="213.0469"/></g><!--class Lawyer--><g class="entity" data-entity="Lawyer" data-source-line="13" data-uid="ent0005" id="entity_Lawyer"><rect fill="#F1F1F1" height="80.5938" rx="2.5" ry="2.5" style="stroke:#181818;stroke-width:0.5;" width="152.5195" x="118.01" y="148.6"/><ellipse cx="164.7781" cy="164.6" fill="#ADD1B2" rx="11" ry="11" style="stroke:#181818;stroke-width:1;"/><path d="M167.7468,170.2406 Q167.1687,170.5375 166.5281,170.6781 Q165.8874,170.8344 165.1843,170.8344 Q162.6843,170.8344 161.3562,169.1937 Q160.0437,167.5375 160.0437,164.4125 Q160.0437,161.2875 161.3562,159.6312 Q162.6843,157.975 165.1843,157.975 Q165.8874,157.975 166.5281,158.1312 Q167.1843,158.2875 167.7468,158.5844 L167.7468,161.3031 Q167.1218,160.725 166.5281,160.4594 Q165.9343,160.1781 165.3093,160.1781 Q163.9656,160.1781 163.2781,161.2562 Q162.5906,162.3187 162.5906,164.4125 Q162.5906,166.5062 163.2781,167.5844 Q163.9656,168.6469 165.3093,168.6469 Q165.9343,168.6469 166.5281,168.3812 Q167.1218,168.1 167.7468,167.5219 L167.7468,170.2406 Z " fill="#000000"/><text fill="#000000" font-family="sans-serif" font-size="14" lengthAdjust="spacing" textLength="50.4834" x="185.2781" y="169.4467">Lawyer</text><line style="stroke:#181818;stroke-width:0.5;" x1="119.01" x2="269.5295" y1="180.6" y2="180.6"/><text fill="#000000" font-family="sans-serif" font-size="14" lengthAdjust="spacing" textLength="140.5195" x="124.01" y="197.5951">+description: String</text><text fill="#000000" font-family="sans-serif" font-size="14" lengthAdjust="spacing" textLength="103.0586" x="124.01" y="213.892">+photo: String</text><line style="stroke:#181818;stroke-width:0.5;" x1="119.01" x2="269.5295" y1="221.1937" y2="221.1937"/></g><!--class Admin--><g class="entity" data-entity="Admin" data-source-line="14" data-uid="ent0007" id="entity_Admin"><rect fill="#F1F1F1" height="48" rx="2.5" ry="2.5" style="stroke:#181818;stroke-width:0.5;" width="76.8643" x="479.84" y="164.89"/><ellipse cx="494.84" cy="180.89" fill="#ADD1B2" rx="11" ry="11" style="stroke:#181818;stroke-width:1;"/><path d="M497.8088,186.5306 Q497.2306,186.8275 496.59,186.9681 Q495.9494,187.1244 495.2463,187.1244 Q492.7463,187.1244 491.4181,185.4838 Q490.1056,183.8275 490.1056,180.7025 Q490.1056,177.5775 491.4181,175.9213 Q492.7463,174.265 495.2463,174.265 Q495.9494,174.265 496.59,174.4213 Q497.2463,174.5775 497.8088,174.8744 L497.8088,177.5931 Q497.1838,177.015 496.59,176.7494 Q495.9963,176.4681 495.3713,176.4681 Q494.0275,176.4681 493.34,177.5463 Q492.6525,178.6088 492.6525,180.7025 Q492.6525,182.7963 493.34,183.8744 Q494.0275,184.9369 495.3713,184.9369 Q495.9963,184.9369 496.59,184.6713 Q497.1838,184.39 497.8088,183.8119 L497.8088,186.5306 Z " fill="#000000"/><text fill="#000000" font-family="sans-serif" font-size="14" lengthAdjust="spacing" textLength="44.8643" x="508.84" y="185.7367">Admin</text><line style="stroke:#181818;stroke-width:0.5;" x1="480.84" x2="555.7043" y1="196.89" y2="196.89"/><line style="stroke:#181818;stroke-width:0.5;" x1="480.84" x2="555.7043" y1="204.89" y2="204.89"/></g><!--class Process--><g class="entity" data-entity="Process" data-source-line="28" data-uid="ent0009" id="entity_Process"><rect fill="#F1F1F1" height="129.4844" rx="2.5" ry="2.5" style="stroke:#181818;stroke-width:0.5;" width="166.1914" x="249.17" y="306.19"/><ellipse cx="301.1846" cy="322.19" fill="#ADD1B2" rx="11" ry="11" style="stroke:#181818;stroke-width:1;"/><path d="M304.1534,327.8306 Q303.5753,328.1275 302.9346,328.2681 Q302.294,328.4244 301.5909,328.4244 Q299.0909,328.4244 297.7628,326.7838 Q296.4503,325.1275 296.4503,322.0025 Q296.4503,318.8775 297.7628,317.2213 Q299.0909,315.565 301.5909,315.565 Q302.294,315.565 302.9346,315.7213 Q303.5909,315.8775 304.1534,316.1744 L304.1534,318.8931 Q303.5284,318.315 302.9346,318.0494 Q302.3409,317.7681 301.7159,317.7681 Q300.3721,317.7681 299.6846,318.8463 Q298.9971,319.9088 298.9971,322.0025 Q298.9971,324.0963 299.6846,325.1744 Q300.3721,326.2369 301.7159,326.2369 Q302.3409,326.2369 302.9346,325.9713 Q303.5284,325.69 304.1534,325.1119 L304.1534,327.8306 Z " fill="#000000"/><text fill="#000000" font-family="sans-serif" font-size="14" lengthAdjust="spacing" textLength="53.6621" x="321.6846" y="327.0367">Process</text><line style="stroke:#181818;stroke-width:0.5;" x1="250.17" x2="414.3614" y1="338.19" y2="338.19"/><text fill="#000000" font-family="sans-serif" font-size="14" lengthAdjust="spacing" textLength="140.5195" x="255.17" y="355.1851">+description: String</text><text fill="#000000" font-family="sans-serif" font-size="14" lengthAdjust="spacing" textLength="141.4561" x="255.17" y="371.482">+createdDate: Date</text><text fill="#000000" font-family="sans-serif" font-size="14" lengthAdjust="spacing" textLength="132.7676" x="255.17" y="387.7789">+closedDate: Date</text><text fill="#000000" font-family="sans-serif" font-size="14" lengthAdjust="spacing" textLength="150.4111" x="255.17" y="404.0757">+stepsCount: Integer</text><text fill="#000000" font-family="sans-serif" font-size="14" lengthAdjust="spacing" textLength="154.1914" x="255.17" y="420.3726">+currentStep: Integer</text><line style="stroke:#181818;stroke-width:0.5;" x1="250.17" x2="414.3614" y1="427.6744" y2="427.6744"/></g><!--class Document--><g class="entity" data-entity="Document" data-source-line="36" data-uid="ent0010" id="entity_Document"><rect fill="#F1F1F1" height="80.5938" rx="2.5" ry="2.5" style="stroke:#181818;stroke-width:0.5;" width="136.5781" x="263.98" y="512.68"/><ellipse cx="293.402" cy="528.68" fill="#ADD1B2" rx="11" ry="11" style="stroke:#181818;stroke-width:1;"/><path d="M296.3707,534.3206 Q295.7926,534.6175 295.152,534.7581 Q294.5113,534.9144 293.8082,534.9144 Q291.3082,534.9144 289.9801,533.2738 Q288.6676,531.6175 288.6676,528.4925 Q288.6676,525.3675 289.9801,523.7113 Q291.3082,522.055 293.8082,522.055 Q294.5113,522.055 295.152,522.2113 Q295.8082,522.3675 296.3707,522.6644 L296.3707,525.3831 Q295.7457,524.805 295.152,524.5394 Q294.5582,524.2581 293.9332,524.2581 Q292.5895,524.2581 291.902,525.3363 Q291.2145,526.3988 291.2145,528.4925 Q291.2145,530.5863 291.902,531.6644 Q292.5895,532.7269 293.9332,532.7269 Q294.5582,532.7269 295.152,532.4613 Q295.7457,532.18 296.3707,531.6019 L296.3707,534.3206 Z " fill="#000000"/><text fill="#000000" font-family="sans-serif" font-size="14" lengthAdjust="spacing" textLength="72.5293" x="310.6069" y="533.5267">Document</text><line style="stroke:#181818;stroke-width:0.5;" x1="264.98" x2="399.5581" y1="544.68" y2="544.68"/><text fill="#000000" font-family="sans-serif" font-size="14" lengthAdjust="spacing" textLength="115.3838" x="269.98" y="561.6751">+filePath: String</text><text fill="#000000" font-family="sans-serif" font-size="14" lengthAdjust="spacing" textLength="124.5781" x="269.98" y="577.972">+isRead: Boolean</text><line style="stroke:#181818;stroke-width:0.5;" x1="264.98" x2="399.5581" y1="585.2738" y2="585.2738"/></g><!--class Notification--><g class="entity" data-entity="Notification" data-source-line="41" data-uid="ent0011" id="entity_Notification"><rect fill="#F1F1F1" height="80.5938" rx="2.5" ry="2.5" style="stroke:#181818;stroke-width:0.5;" width="146.3877" x="457.08" y="512.68"/><ellipse cx="487.4064" cy="528.68" fill="#ADD1B2" rx="11" ry="11" style="stroke:#181818;stroke-width:1;"/><path d="M490.3751,534.3206 Q489.797,534.6175 489.1564,534.7581 Q488.5157,534.9144 487.8126,534.9144 Q485.3126,534.9144 483.9845,533.2738 Q482.672,531.6175 482.672,528.4925 Q482.672,525.3675 483.9845,523.7113 Q485.3126,522.055 487.8126,522.055 Q488.5157,522.055 489.1564,522.2113 Q489.8126,522.3675 490.3751,522.6644 L490.3751,525.3831 Q489.7501,524.805 489.1564,524.5394 Q488.5626,524.2581 487.9376,524.2581 Q486.5939,524.2581 485.9064,525.3363 Q485.2189,526.3988 485.2189,528.4925 Q485.2189,530.5863 485.9064,531.6644 Q486.5939,532.7269 487.9376,532.7269 Q488.5626,532.7269 489.1564,532.4613 Q489.7501,532.18 490.3751,531.6019 L490.3751,534.3206 Z " fill="#000000"/><text fill="#000000" font-family="sans-serif" font-size="14" lengthAdjust="spacing" textLength="80.3291" x="504.8122" y="533.5267">Notification</text><line style="stroke:#181818;stroke-width:0.5;" x1="458.08" x2="602.4677" y1="544.68" y2="544.68"/><text fill="#000000" font-family="sans-serif" font-size="14" lengthAdjust="spacing" textLength="116.2793" x="463.08" y="561.6751">+content: String</text><text fill="#000000" font-family="sans-serif" font-size="14" lengthAdjust="spacing" textLength="134.3877" x="463.08" y="577.972">+sentAt: DateTime</text><line style="stroke:#181818;stroke-width:0.5;" x1="458.08" x2="602.4677" y1="585.2738" y2="585.2738"/></g><!--class Chat--><g class="entity" data-entity="Chat" data-source-line="46" data-uid="ent0012" id="entity_Chat"><rect fill="#F1F1F1" height="48" rx="2.5" ry="2.5" style="stroke:#181818;stroke-width:0.5;" width="64.7168" x="457.91" y="346.93"/><ellipse cx="472.91" cy="362.93" fill="#ADD1B2" rx="11" ry="11" style="stroke:#181818;stroke-width:1;"/><path d="M475.8787,368.5706 Q475.3006,368.8675 474.66,369.0081 Q474.0194,369.1644 473.3162,369.1644 Q470.8162,369.1644 469.4881,367.5237 Q468.1756,365.8675 468.1756,362.7425 Q468.1756,359.6175 469.4881,357.9612 Q470.8162,356.305 473.3162,356.305 Q474.0194,356.305 474.66,356.4612 Q475.3162,356.6175 475.8787,356.9144 L475.8787,359.6331 Q475.2537,359.055 474.66,358.7894 Q474.0662,358.5081 473.4412,358.5081 Q472.0975,358.5081 471.41,359.5862 Q470.7225,360.6487 470.7225,362.7425 Q470.7225,364.8362 471.41,365.9144 Q472.0975,366.9769 473.4412,366.9769 Q474.0662,366.9769 474.66,366.7112 Q475.2537,366.43 475.8787,365.8519 L475.8787,368.5706 Z " fill="#000000"/><text fill="#000000" font-family="sans-serif" font-size="14" lengthAdjust="spacing" textLength="32.7168" x="486.91" y="367.7767">Chat</text><line style="stroke:#181818;stroke-width:0.5;" x1="458.91" x2="521.6268" y1="378.93" y2="378.93"/><line style="stroke:#181818;stroke-width:0.5;" x1="458.91" x2="521.6268" y1="386.93" y2="386.93"/></g><!--class Message--><g class="entity" data-entity="Message" data-source-line="49" data-uid="ent0013" id="entity_Message"><rect fill="#F1F1F1" height="80.5938" rx="2.5" ry="2.5" style="stroke:#181818;stroke-width:0.5;" width="146.3877" x="661.08" y="512.68"/><ellipse cx="699.9427" cy="528.68" fill="#ADD1B2" rx="11" ry="11" style="stroke:#181818;stroke-width:1;"/><path d="M702.9115,534.3206 Q702.3334,534.6175 701.6927,534.7581 Q701.0521,534.9144 700.349,534.9144 Q697.849,534.9144 696.5209,533.2738 Q695.2084,531.6175 695.2084,528.4925 Q695.2084,525.3675 696.5209,523.7113 Q697.849,522.055 700.349,522.055 Q701.0521,522.055 701.6927,522.2113 Q702.349,522.3675 702.9115,522.6644 L702.9115,525.3831 Q702.2865,524.805 701.6927,524.5394 Q701.099,524.2581 700.474,524.2581 Q699.1302,524.2581 698.4427,525.3363 Q697.7552,526.3988 697.7552,528.4925 Q697.7552,530.5863 698.4427,531.6644 Q699.1302,532.7269 700.474,532.7269 Q701.099,532.7269 701.6927,532.4613 Q702.2865,532.18 702.9115,531.6019 L702.9115,534.3206 Z " fill="#000000"/><text fill="#000000" font-family="sans-serif" font-size="14" lengthAdjust="spacing" textLength="61.3594" x="719.2456" y="533.5267">Message</text><line style="stroke:#181818;stroke-width:0.5;" x1="662.08" x2="806.4677" y1="544.68" y2="544.68"/><text fill="#000000" font-family="sans-serif" font-size="14" lengthAdjust="spacing" textLength="116.2793" x="667.08" y="561.6751">+content: String</text><text fill="#000000" font-family="sans-serif" font-size="14" lengthAdjust="spacing" textLength="134.3877" x="667.08" y="577.972">+sentAt: DateTime</text><line style="stroke:#181818;stroke-width:0.5;" x1="662.08" x2="806.4677" y1="585.2738" y2="585.2738"/></g><!--class Appointment--><g class="entity" data-entity="Appointment" data-source-line="54" data-uid="ent0014" id="entity_Appointment"><rect fill="#F1F1F1" height="64.2969" rx="2.5" ry="2.5" style="stroke:#181818;stroke-width:0.5;" width="187.7451" x="32.4" y="520.82"/><ellipse cx="76.6337" cy="536.82" fill="#ADD1B2" rx="11" ry="11" style="stroke:#181818;stroke-width:1;"/><path d="M79.6025,542.4606 Q79.0244,542.7575 78.3837,542.8981 Q77.7431,543.0544 77.04,543.0544 Q74.54,543.0544 73.2119,541.4137 Q71.8994,539.7575 71.8994,536.6325 Q71.8994,533.5075 73.2119,531.8512 Q74.54,530.195 77.04,530.195 Q77.7431,530.195 78.3837,530.3512 Q79.04,530.5075 79.6025,530.8044 L79.6025,533.5231 Q78.9775,532.945 78.3837,532.6794 Q77.79,532.3981 77.165,532.3981 Q75.8212,532.3981 75.1337,533.4762 Q74.4462,534.5387 74.4462,536.6325 Q74.4462,538.7262 75.1337,539.8044 Q75.8212,540.8669 77.165,540.8669 Q77.79,540.8669 78.3837,540.6012 Q78.9775,540.32 79.6025,539.7419 L79.6025,542.4606 Z " fill="#000000"/><text fill="#000000" font-family="sans-serif" font-size="14" lengthAdjust="spacing" textLength="90.7813" x="97.1301" y="541.6667">Appointment</text><line style="stroke:#181818;stroke-width:0.5;" x1="33.4" x2="219.1451" y1="552.82" y2="552.82"/><text fill="#000000" font-family="sans-serif" font-size="14" lengthAdjust="spacing" textLength="175.7451" x="38.4" y="569.8151">+scheduledAt: DateTime</text><line style="stroke:#181818;stroke-width:0.5;" x1="33.4" x2="219.1451" y1="577.1169" y2="577.1169"/></g><!--reverse link User to Client--><g class="link" data-entity-1="User" data-entity-2="Client" data-source-line="12" data-uid="lnk4" id="link_User_Client"><path codeLine="12" d="M466.4358,100.7312 C444.9258,122.4912 431.27,136.3 411.21,156.59" fill="none" id="User-backto-Client" style="stroke:#181818;stroke-width:1;"/><polygon fill="none" points="479.09,87.93,462.1687,96.5132,470.7029,104.9493,479.09,87.93" style="stroke:#181818;stroke-width:1;"/></g><!--reverse link User to Lawyer--><g class="link" data-entity-1="User" data-entity-2="Lawyer" data-source-line="13" data-uid="lnk6" id="link_User_Lawyer"><path codeLine="13" d="M430.6387,86.0615 C378.4787,108.5315 324.26,131.89 270.86,154.9" fill="none" id="User-backto-Lawyer" style="stroke:#181818;stroke-width:1;"/><polygon fill="none" points="447.17,78.94,428.2649,80.5511,433.0125,91.572,447.17,78.94" style="stroke:#181818;stroke-width:1;"/></g><!--reverse link User to Admin--><g class="link" data-entity-1="User" data-entity-2="Admin" data-source-line="14" data-uid="lnk8" id="link_User_Admin"><path codeLine="14" d="M518.27,105.93 C518.27,130.76 518.27,143.89 518.27,164.76" fill="none" id="User-backto-Admin" style="stroke:#181818;stroke-width:1;"/><polygon fill="none" points="518.27,87.93,512.27,105.93,524.27,105.93,518.27,87.93" style="stroke:#181818;stroke-width:1;"/></g><!--link Client to Process--><g class="link" data-entity-1="Client" data-entity-2="Process" data-source-line="63" data-uid="lnk15" id="link_Client_Process"><path codeLine="63" d="M371.91,221.26 C365.7,244.53 357.03,277.07 349.38,305.77" fill="none" id="Client-Process" style="stroke:#181818;stroke-width:1;"/><text fill="#000000" font-family="sans-serif" font-size="13" lengthAdjust="spacing" textLength="52.0063" x="362.27" y="272.2569">initiates</text><text fill="#000000" font-family="sans-serif" font-size="13" lengthAdjust="spacing" textLength="8.271" x="361.5025" y="241.1877">1</text><text fill="#000000" font-family="sans-serif" font-size="13" lengthAdjust="spacing" textLength="23.0356" x="326.9608" y="295.3505">0..*</text></g><!--link Lawyer to Process--><g class="link" data-entity-1="Lawyer" data-entity-2="Process" data-source-line="64" data-uid="lnk16" id="link_Lawyer_Process"><path codeLine="64" d="M178.07,229.6 C174.35,244.95 173.46,262.16 181.27,276.19 C196.19,303.02 222.33,323.16 248.7,337.75" fill="none" id="Lawyer-Process" style="stroke:#181818;stroke-width:1;"/><text fill="#000000" font-family="sans-serif" font-size="13" lengthAdjust="spacing" textLength="51.0796" x="182.27" y="272.2569">handles</text><text fill="#000000" font-family="sans-serif" font-size="13" lengthAdjust="spacing" textLength="8.271" x="166.8723" y="249.3599">1</text><text fill="#000000" font-family="sans-serif" font-size="13" lengthAdjust="spacing" textLength="23.0356" x="218.1259" y="331.5803">0..*</text></g><!--reverse link Process to Document--><g class="link" data-entity-1="Process" data-entity-2="Document" data-source-line="66" data-uid="lnk17" id="link_Process_Document"><path codeLine="66" d="M332.27,448.17 C332.27,473.62 332.27,490.07 332.27,512.4" fill="none" id="Process-backto-Document" style="stroke:#181818;stroke-width:1;"/><polygon fill="#181818" points="332.27,436.17,328.27,442.17,332.27,448.17,336.27,442.17,332.27,436.17" style="stroke:#181818;stroke-width:1;"/><text fill="#000000" font-family="sans-serif" font-size="13" lengthAdjust="spacing" textLength="55.0278" x="333.27" y="478.7469">contains</text><text fill="#000000" font-family="sans-serif" font-size="13" lengthAdjust="spacing" textLength="8.271" x="323.8719" y="455.7448">1</text><text fill="#000000" font-family="sans-serif" font-size="13" lengthAdjust="spacing" textLength="23.0356" x="307.3684" y="501.5152">0..*</text></g><!--link Process to Notification--><g class="link" data-entity-1="Process" data-entity-2="Notification" data-source-line="67" data-uid="lnk18" id="link_Process_Notification"><path codeLine="67" d="M402.91,436.17 C430.9,461.62 462.19,490.07 486.75,512.4" fill="none" id="Process-Notification" style="stroke:#181818;stroke-width:1;"/><text fill="#000000" font-family="sans-serif" font-size="13" lengthAdjust="spacing" textLength="65.6665" x="449.27" y="478.7469">generates</text><text fill="#000000" font-family="sans-serif" font-size="13" lengthAdjust="spacing" textLength="8.271" x="401.7967" y="455.7448">1</text><text fill="#000000" font-family="sans-serif" font-size="13" lengthAdjust="spacing" textLength="23.0356" x="454.6396" y="501.5152">0..*</text></g><!--link Process to Appointment--><g class="link" data-entity-1="Process" data-entity-2="Appointment" data-source-line="68" data-uid="lnk19" id="link_Process_Appointment"><path codeLine="68" d="M258.77,436.17 C226.07,464.75 189.04,497.11 162.45,520.35" fill="none" id="Process-Appointment" style="stroke:#181818;stroke-width:1;"/><text fill="#000000" font-family="sans-serif" font-size="13" lengthAdjust="spacing" textLength="65.0317" x="224.27" y="478.7469">schedules</text><text fill="#000000" font-family="sans-serif" font-size="13" lengthAdjust="spacing" textLength="24.8066" x="225.9948" y="455.7448">0..1</text><text fill="#000000" font-family="sans-serif" font-size="13" lengthAdjust="spacing" textLength="23.0356" x="144.1575" y="509.782">0..*</text></g><!--link User to Notification--><g class="link" data-entity-1="User" data-entity-2="Notification" data-source-line="71" data-uid="lnk20" id="link_User_Notification"><path codeLine="71" d="M546.45,87.76 C557.43,105.47 568.69,127.18 574.27,148.6 C608.16,278.81 566.99,439.26 543.89,512.35" fill="none" id="User-Notification" style="stroke:#181818;stroke-width:1;"/><text fill="#000000" font-family="sans-serif" font-size="13" lengthAdjust="spacing" textLength="54.5645" x="587.27" y="272.2569">receives</text><text fill="#000000" font-family="sans-serif" font-size="13" lengthAdjust="spacing" textLength="8.271" x="542.478" y="107.7818">1</text><text fill="#000000" font-family="sans-serif" font-size="13" lengthAdjust="spacing" textLength="23.0356" x="521.2301" y="501.7573">0..*</text></g><!--link Client to Chat--><g class="link" data-entity-1="Client" data-entity-2="Chat" data-source-line="74" data-uid="lnk21" id="link_Client_Chat"><path codeLine="74" d="M399.82,221.24 C407.2,233.11 415.65,246.76 423.27,259.19 C441.7,289.27 462.73,324.11 476.23,346.55" fill="none" id="Client-Chat" style="stroke:#181818;stroke-width:1;"/><text fill="#000000" font-family="sans-serif" font-size="13" lengthAdjust="spacing" textLength="77.1177" x="434.27" y="272.2569">participates</text><text fill="#000000" font-family="sans-serif" font-size="13" lengthAdjust="spacing" textLength="8.271" x="394.9073" y="241.1638">1</text><text fill="#000000" font-family="sans-serif" font-size="13" lengthAdjust="spacing" textLength="23.0356" x="447.0094" y="335.8623">0..*</text></g><!--link Lawyer to Chat--><g class="link" data-entity-1="Lawyer" data-entity-2="Chat" data-source-line="75" data-uid="lnk22" id="link_Lawyer_Chat"><path codeLine="75" d="M220.3,229.29 C233.57,246.3 251.15,264.87 271.27,276.19 C335.08,312.11 369.44,270.31 433.27,306.19 C450.48,315.87 465.19,332.69 475.36,346.63" fill="none" id="Lawyer-Chat" style="stroke:#181818;stroke-width:1;"/><text fill="#000000" font-family="sans-serif" font-size="13" lengthAdjust="spacing" textLength="77.1177" x="272.27" y="272.2569">participates</text><text fill="#000000" font-family="sans-serif" font-size="13" lengthAdjust="spacing" textLength="8.271" x="215.9712" y="249.3002">1</text><text fill="#000000" font-family="sans-serif" font-size="13" lengthAdjust="spacing" textLength="23.0356" x="474.5335" y="335.9618">0..*</text></g><!--reverse link Chat to Message--><g class="link" data-entity-1="Chat" data-entity-2="Message" data-source-line="76" data-uid="lnk23" id="link_Chat_Message"><path codeLine="76" d="M531.3263,402.2244 C571.4863,431.8544 631.99,476.5 680.68,512.43" fill="none" id="Chat-backto-Message" style="stroke:#181818;stroke-width:1;"/><polygon fill="#181818" points="521.67,395.1,524.1233,401.8809,531.3263,402.2244,528.8729,395.4434,521.67,395.1" style="stroke:#181818;stroke-width:1;"/><text fill="#000000" font-family="sans-serif" font-size="13" lengthAdjust="spacing" textLength="55.0278" x="634.27" y="478.7469">contains</text><text fill="#000000" font-family="sans-serif" font-size="13" lengthAdjust="spacing" textLength="8.271" x="520.3822" y="414.9026">1</text><text fill="#000000" font-family="sans-serif" font-size="13" lengthAdjust="spacing" textLength="23.0356" x="646.9018" y="501.5501">0..*</text></g><!--link User to Message--><g class="link" data-entity-1="User" data-entity-2="Message" data-source-line="77" data-uid="lnk24" id="link_User_Message"><path codeLine="77" d="M562.19,87.88 C571.34,97.17 580.55,107.36 588.27,117.6 C597.73,130.15 598.52,134.41 605.27,148.6 C665.75,275.74 707.93,438.39 725.35,512.27" fill="none" id="User-Message" style="stroke:#181818;stroke-width:1;"/><text fill="#000000" font-family="sans-serif" font-size="13" lengthAdjust="spacing" textLength="38.0352" x="656.27" y="272.2569">sends</text><text fill="#000000" font-family="sans-serif" font-size="13" lengthAdjust="spacing" textLength="8.271" x="560.5746" y="107.6207">1</text><text fill="#000000" font-family="sans-serif" font-size="13" lengthAdjust="spacing" textLength="23.0356" x="699.0978" y="501.6645">0..*</text></g><!--link Client to Appointment--><g class="link" data-entity-1="Client" data-entity-2="Appointment" data-source-line="80" data-uid="lnk25" id="link_Client_Appointment"><path codeLine="80" d="M314.93,219.3 C306.05,222.86 296.99,226.26 288.27,229.19 C236.16,246.71 205.1,218.38 168.27,259.19 C102.04,332.58 111.67,461.15 120.52,520.41" fill="none" id="Client-Appointment" style="stroke:#181818;stroke-width:1;"/><text fill="#000000" font-family="sans-serif" font-size="13" lengthAdjust="spacing" textLength="65.0317" x="139.27" y="375.4969">schedules</text><text fill="#000000" font-family="sans-serif" font-size="13" lengthAdjust="spacing" textLength="8.271" x="298.9278" y="219.0226">1</text><text fill="#000000" font-family="sans-serif" font-size="13" lengthAdjust="spacing" textLength="23.0356" x="94.2346" y="509.8534">0..*</text></g><!--link Lawyer to Appointment--><g class="link" data-entity-1="Lawyer" data-entity-2="Appointment" data-source-line="81" data-uid="lnk26" id="link_Lawyer_Appointment"><path codeLine="81" d="M117.51,224.63 C84.98,243.7 50.45,270.77 32.27,306.19 C6,357.39 13.08,381.42 32.27,435.68 C43.95,468.72 69.46,499.25 90.95,520.74" fill="none" id="Lawyer-Appointment" style="stroke:#181818;stroke-width:1;"/><text fill="#000000" font-family="sans-serif" font-size="13" lengthAdjust="spacing" textLength="49.4229" x="33.27" y="375.4969">attends</text><text fill="#000000" font-family="sans-serif" font-size="13" lengthAdjust="spacing" textLength="8.271" x="101.8255" y="224.3942">1</text><text fill="#000000" font-family="sans-serif" font-size="13" lengthAdjust="spacing" textLength="23.0356" x="58.2965" y="509.6266">0..*</text></g><!--SRC=[dLHDRzim3BthLmWvh5k75jtLM0zPSYcm3aMp_G1LOcEYYcI8p89z_VVHLcmhQRm0yq67fqVoyP4olM1eJ38RRRqXcZCdVDeotDaOLlWJz8rI5_fs-fFRPTmO3Fe-El1doCey4ITZEPVJtmYI_gMqVEz1ilXAhqH1M6Ue4Suk9ZUWVvJgGZx-lhhI2uyGk00-czqFI0KmTniCIkLQcTvNCyub82epPrfEqjCSa4tOCCPm9AsE75z7TnKbU00UKhHIvsm-cy0mkAKSbMxFFUmZlKQ9eQ55t0Qkz5rWM4lNcRvDIPfSoVruCsXPHhlT51uyeuS7m_MX4gH7C6BvfnWzc326VucCpsXDAxvF8Ml2qCeeCv0WSyw2l-86nXIBsd3fphrOOzRmdzdcJHCnSDaIsHhSreCxZZYtn8_WkyQeneRERV55FrOWjL-hsOUPbesRtLnVNyw6gLSQ0pAA3bBxnPeYrYOuBpJLGotnScGEmwjqQvEyE3gWZio3ELLw3G5Ifs2W2-yWeZIoqhs7r3PQ9YCTuavx32_WDCVyUj-6oFktzIu_lN-gIM01l-VStJQysIz1E- -JNdQiIijVYj5YC-tbAMA77JdPBrrXv0dT8qiMq7Lw2vicvZvbv4czXsJ3tDRv2m00]--></g></svg>