<svg xmlns="http://www.w3.org/2000/svg" xmlns:xlink="http://www.w3.org/1999/xlink" contentStyleType="text/css" data-diagram-type="CLASS" height="421px" preserveAspectRatio="none" style="width:758px;height:421px;background:#FFFFFF;" version="1.1" viewBox="0 0 758 421" width="758px" zoomAndPan="magnify"><defs/><g><!--class User--><g class="entity" data-entity="User" data-source-line="7" data-uid="ent0002" id="entity_User"><rect fill="#F1F1F1" height="48" rx="2.5" ry="2.5" style="stroke:#181818;stroke-width:0.5;" width="63.9102" x="478.08" y="7"/><ellipse cx="493.08" cy="23" fill="#A9DCDF" rx="11" ry="11" style="stroke:#181818;stroke-width:1;"/><path d="M493.1894,18.3438 L492.0331,23.4219 L494.3613,23.4219 L493.1894,18.3438 Z M491.705,16.1094 L494.6894,16.1094 L498.0488,28.5 L495.5956,28.5 L494.83,25.4375 L491.5488,25.4375 L490.7988,28.5 L488.3613,28.5 L491.705,16.1094 Z " fill="#000000"/><text fill="#000000" font-family="sans-serif" font-size="14" font-style="italic" lengthAdjust="spacing" textLength="31.9102" x="507.08" y="27.8467">User</text><line style="stroke:#181818;stroke-width:0.5;" x1="479.08" x2="540.9902" y1="39" y2="39"/><line style="stroke:#181818;stroke-width:0.5;" x1="479.08" x2="540.9902" y1="47" y2="47"/></g><!--class Client--><g class="entity" data-entity="Client" data-source-line="9" data-uid="ent0003" id="entity_Client"><rect fill="#F1F1F1" height="48" rx="2.5" ry="2.5" style="stroke:#181818;stroke-width:0.5;" width="72.5303" x="360.77" y="116"/><ellipse cx="375.77" cy="132" fill="#ADD1B2" rx="11" ry="11" style="stroke:#181818;stroke-width:1;"/><path d="M378.7388,137.6406 Q378.1606,137.9375 377.52,138.0781 Q376.8794,138.2344 376.1763,138.2344 Q373.6763,138.2344 372.3481,136.5938 Q371.0356,134.9375 371.0356,131.8125 Q371.0356,128.6875 372.3481,127.0313 Q373.6763,125.375 376.1763,125.375 Q376.8794,125.375 377.52,125.5313 Q378.1763,125.6875 378.7388,125.9844 L378.7388,128.7031 Q378.1138,128.125 377.52,127.8594 Q376.9263,127.5781 376.3013,127.5781 Q374.9575,127.5781 374.27,128.6563 Q373.5825,129.7188 373.5825,131.8125 Q373.5825,133.9063 374.27,134.9844 Q374.9575,136.0469 376.3013,136.0469 Q376.9263,136.0469 377.52,135.7813 Q378.1138,135.5 378.7388,134.9219 L378.7388,137.6406 Z " fill="#000000"/><text fill="#000000" font-family="sans-serif" font-size="14" lengthAdjust="spacing" textLength="40.5303" x="389.77" y="136.8467">Client</text><line style="stroke:#181818;stroke-width:0.5;" x1="361.77" x2="432.3003" y1="148" y2="148"/><line style="stroke:#181818;stroke-width:0.5;" x1="361.77" x2="432.3003" y1="156" y2="156"/></g><!--class Lawyer--><g class="entity" data-entity="Lawyer" data-source-line="10" data-uid="ent0005" id="entity_Lawyer"><rect fill="#F1F1F1" height="48" rx="2.5" ry="2.5" style="stroke:#181818;stroke-width:0.5;" width="82.4834" x="187.79" y="116"/><ellipse cx="202.79" cy="132" fill="#ADD1B2" rx="11" ry="11" style="stroke:#181818;stroke-width:1;"/><path d="M205.7588,137.6406 Q205.1806,137.9375 204.54,138.0781 Q203.8994,138.2344 203.1963,138.2344 Q200.6963,138.2344 199.3681,136.5938 Q198.0556,134.9375 198.0556,131.8125 Q198.0556,128.6875 199.3681,127.0313 Q200.6963,125.375 203.1963,125.375 Q203.8994,125.375 204.54,125.5313 Q205.1963,125.6875 205.7588,125.9844 L205.7588,128.7031 Q205.1338,128.125 204.54,127.8594 Q203.9463,127.5781 203.3213,127.5781 Q201.9775,127.5781 201.29,128.6563 Q200.6025,129.7188 200.6025,131.8125 Q200.6025,133.9063 201.29,134.9844 Q201.9775,136.0469 203.3213,136.0469 Q203.9463,136.0469 204.54,135.7813 Q205.1338,135.5 205.7588,134.9219 L205.7588,137.6406 Z " fill="#000000"/><text fill="#000000" font-family="sans-serif" font-size="14" lengthAdjust="spacing" textLength="50.4834" x="216.79" y="136.8467">Lawyer</text><line style="stroke:#181818;stroke-width:0.5;" x1="188.79" x2="269.2734" y1="148" y2="148"/><line style="stroke:#181818;stroke-width:0.5;" x1="188.79" x2="269.2734" y1="156" y2="156"/></g><!--class Admin--><g class="entity" data-entity="Admin" data-source-line="11" data-uid="ent0007" id="entity_Admin"><rect fill="#F1F1F1" height="48" rx="2.5" ry="2.5" style="stroke:#181818;stroke-width:0.5;" width="76.8643" x="471.6" y="116"/><ellipse cx="486.6" cy="132" fill="#ADD1B2" rx="11" ry="11" style="stroke:#181818;stroke-width:1;"/><path d="M489.5688,137.6406 Q488.9906,137.9375 488.35,138.0781 Q487.7094,138.2344 487.0063,138.2344 Q484.5063,138.2344 483.1781,136.5938 Q481.8656,134.9375 481.8656,131.8125 Q481.8656,128.6875 483.1781,127.0313 Q484.5063,125.375 487.0063,125.375 Q487.7094,125.375 488.35,125.5313 Q489.0063,125.6875 489.5688,125.9844 L489.5688,128.7031 Q488.9438,128.125 488.35,127.8594 Q487.7563,127.5781 487.1313,127.5781 Q485.7875,127.5781 485.1,128.6563 Q484.4125,129.7188 484.4125,131.8125 Q484.4125,133.9063 485.1,134.9844 Q485.7875,136.0469 487.1313,136.0469 Q487.7563,136.0469 488.35,135.7813 Q488.9438,135.5 489.5688,134.9219 L489.5688,137.6406 Z " fill="#000000"/><text fill="#000000" font-family="sans-serif" font-size="14" lengthAdjust="spacing" textLength="44.8643" x="500.6" y="136.8467">Admin</text><line style="stroke:#181818;stroke-width:0.5;" x1="472.6" x2="547.4643" y1="148" y2="148"/><line style="stroke:#181818;stroke-width:0.5;" x1="472.6" x2="547.4643" y1="156" y2="156"/></g><!--class Process--><g class="entity" data-entity="Process" data-source-line="19" data-uid="ent0009" id="entity_Process"><rect fill="#F1F1F1" height="48" rx="2.5" ry="2.5" style="stroke:#181818;stroke-width:0.5;" width="85.6621" x="309.2" y="241"/><ellipse cx="324.2" cy="257" fill="#ADD1B2" rx="11" ry="11" style="stroke:#181818;stroke-width:1;"/><path d="M327.1688,262.6406 Q326.5906,262.9375 325.95,263.0781 Q325.3094,263.2344 324.6063,263.2344 Q322.1063,263.2344 320.7781,261.5938 Q319.4656,259.9375 319.4656,256.8125 Q319.4656,253.6875 320.7781,252.0313 Q322.1063,250.375 324.6063,250.375 Q325.3094,250.375 325.95,250.5313 Q326.6063,250.6875 327.1688,250.9844 L327.1688,253.7031 Q326.5438,253.125 325.95,252.8594 Q325.3563,252.5781 324.7313,252.5781 Q323.3875,252.5781 322.7,253.6563 Q322.0125,254.7188 322.0125,256.8125 Q322.0125,258.9063 322.7,259.9844 Q323.3875,261.0469 324.7313,261.0469 Q325.3563,261.0469 325.95,260.7813 Q326.5438,260.5 327.1688,259.9219 L327.1688,262.6406 Z " fill="#000000"/><text fill="#000000" font-family="sans-serif" font-size="14" lengthAdjust="spacing" textLength="53.6621" x="338.2" y="261.8467">Process</text><line style="stroke:#181818;stroke-width:0.5;" x1="310.2" x2="393.8621" y1="273" y2="273"/><line style="stroke:#181818;stroke-width:0.5;" x1="310.2" x2="393.8621" y1="281" y2="281"/></g><!--class Document--><g class="entity" data-entity="Document" data-source-line="21" data-uid="ent0010" id="entity_Document"><rect fill="#F1F1F1" height="48" rx="2.5" ry="2.5" style="stroke:#181818;stroke-width:0.5;" width="104.5293" x="299.77" y="366"/><ellipse cx="314.77" cy="382" fill="#ADD1B2" rx="11" ry="11" style="stroke:#181818;stroke-width:1;"/><path d="M317.7388,387.6406 Q317.1606,387.9375 316.52,388.0781 Q315.8794,388.2344 315.1763,388.2344 Q312.6763,388.2344 311.3481,386.5938 Q310.0356,384.9375 310.0356,381.8125 Q310.0356,378.6875 311.3481,377.0313 Q312.6763,375.375 315.1763,375.375 Q315.8794,375.375 316.52,375.5313 Q317.1763,375.6875 317.7388,375.9844 L317.7388,378.7031 Q317.1138,378.125 316.52,377.8594 Q315.9263,377.5781 315.3013,377.5781 Q313.9575,377.5781 313.27,378.6563 Q312.5825,379.7188 312.5825,381.8125 Q312.5825,383.9063 313.27,384.9844 Q313.9575,386.0469 315.3013,386.0469 Q315.9263,386.0469 316.52,385.7813 Q317.1138,385.5 317.7388,384.9219 L317.7388,387.6406 Z " fill="#000000"/><text fill="#000000" font-family="sans-serif" font-size="14" lengthAdjust="spacing" textLength="72.5293" x="328.77" y="386.8467">Document</text><line style="stroke:#181818;stroke-width:0.5;" x1="300.77" x2="403.2993" y1="398" y2="398"/><line style="stroke:#181818;stroke-width:0.5;" x1="300.77" x2="403.2993" y1="406" y2="406"/></g><!--class Notification--><g class="entity" data-entity="Notification" data-source-line="23" data-uid="ent0011" id="entity_Notification"><rect fill="#F1F1F1" height="48" rx="2.5" ry="2.5" style="stroke:#181818;stroke-width:0.5;" width="112.3291" x="459.87" y="366"/><ellipse cx="474.87" cy="382" fill="#ADD1B2" rx="11" ry="11" style="stroke:#181818;stroke-width:1;"/><path d="M477.8388,387.6406 Q477.2606,387.9375 476.62,388.0781 Q475.9794,388.2344 475.2763,388.2344 Q472.7763,388.2344 471.4481,386.5938 Q470.1356,384.9375 470.1356,381.8125 Q470.1356,378.6875 471.4481,377.0313 Q472.7763,375.375 475.2763,375.375 Q475.9794,375.375 476.62,375.5313 Q477.2763,375.6875 477.8388,375.9844 L477.8388,378.7031 Q477.2138,378.125 476.62,377.8594 Q476.0263,377.5781 475.4013,377.5781 Q474.0575,377.5781 473.37,378.6563 Q472.6825,379.7188 472.6825,381.8125 Q472.6825,383.9063 473.37,384.9844 Q474.0575,386.0469 475.4013,386.0469 Q476.0263,386.0469 476.62,385.7813 Q477.2138,385.5 477.8388,384.9219 L477.8388,387.6406 Z " fill="#000000"/><text fill="#000000" font-family="sans-serif" font-size="14" lengthAdjust="spacing" textLength="80.3291" x="488.87" y="386.8467">Notification</text><line style="stroke:#181818;stroke-width:0.5;" x1="460.87" x2="571.1991" y1="398" y2="398"/><line style="stroke:#181818;stroke-width:0.5;" x1="460.87" x2="571.1991" y1="406" y2="406"/></g><!--class Chat--><g class="entity" data-entity="Chat" data-source-line="25" data-uid="ent0012" id="entity_Chat"><rect fill="#F1F1F1" height="48" rx="2.5" ry="2.5" style="stroke:#181818;stroke-width:0.5;" width="64.7168" x="455.68" y="241"/><ellipse cx="470.68" cy="257" fill="#ADD1B2" rx="11" ry="11" style="stroke:#181818;stroke-width:1;"/><path d="M473.6488,262.6406 Q473.0706,262.9375 472.43,263.0781 Q471.7894,263.2344 471.0863,263.2344 Q468.5863,263.2344 467.2581,261.5938 Q465.9456,259.9375 465.9456,256.8125 Q465.9456,253.6875 467.2581,252.0313 Q468.5863,250.375 471.0863,250.375 Q471.7894,250.375 472.43,250.5313 Q473.0863,250.6875 473.6488,250.9844 L473.6488,253.7031 Q473.0238,253.125 472.43,252.8594 Q471.8363,252.5781 471.2113,252.5781 Q469.8675,252.5781 469.18,253.6563 Q468.4925,254.7188 468.4925,256.8125 Q468.4925,258.9063 469.18,259.9844 Q469.8675,261.0469 471.2113,261.0469 Q471.8363,261.0469 472.43,260.7813 Q473.0238,260.5 473.6488,259.9219 L473.6488,262.6406 Z " fill="#000000"/><text fill="#000000" font-family="sans-serif" font-size="14" lengthAdjust="spacing" textLength="32.7168" x="484.68" y="261.8467">Chat</text><line style="stroke:#181818;stroke-width:0.5;" x1="456.68" x2="519.3968" y1="273" y2="273"/><line style="stroke:#181818;stroke-width:0.5;" x1="456.68" x2="519.3968" y1="281" y2="281"/></g><!--class Message--><g class="entity" data-entity="Message" data-source-line="27" data-uid="ent0013" id="entity_Message"><rect fill="#F1F1F1" height="48" rx="2.5" ry="2.5" style="stroke:#181818;stroke-width:0.5;" width="93.3594" x="658.35" y="366"/><ellipse cx="673.35" cy="382" fill="#ADD1B2" rx="11" ry="11" style="stroke:#181818;stroke-width:1;"/><path d="M676.3188,387.6406 Q675.7406,387.9375 675.1,388.0781 Q674.4594,388.2344 673.7563,388.2344 Q671.2563,388.2344 669.9281,386.5938 Q668.6156,384.9375 668.6156,381.8125 Q668.6156,378.6875 669.9281,377.0313 Q671.2563,375.375 673.7563,375.375 Q674.4594,375.375 675.1,375.5313 Q675.7563,375.6875 676.3188,375.9844 L676.3188,378.7031 Q675.6938,378.125 675.1,377.8594 Q674.5063,377.5781 673.8813,377.5781 Q672.5375,377.5781 671.85,378.6563 Q671.1625,379.7188 671.1625,381.8125 Q671.1625,383.9063 671.85,384.9844 Q672.5375,386.0469 673.8813,386.0469 Q674.5063,386.0469 675.1,385.7813 Q675.6938,385.5 676.3188,384.9219 L676.3188,387.6406 Z " fill="#000000"/><text fill="#000000" font-family="sans-serif" font-size="14" lengthAdjust="spacing" textLength="61.3594" x="687.35" y="386.8467">Message</text><line style="stroke:#181818;stroke-width:0.5;" x1="659.35" x2="750.7094" y1="398" y2="398"/><line style="stroke:#181818;stroke-width:0.5;" x1="659.35" x2="750.7094" y1="406" y2="406"/></g><!--class Appointment--><g class="entity" data-entity="Appointment" data-source-line="29" data-uid="ent0014" id="entity_Appointment"><rect fill="#F1F1F1" height="48" rx="2.5" ry="2.5" style="stroke:#181818;stroke-width:0.5;" width="122.7813" x="62.64" y="366"/><ellipse cx="77.64" cy="382" fill="#ADD1B2" rx="11" ry="11" style="stroke:#181818;stroke-width:1;"/><path d="M80.6088,387.6406 Q80.0306,387.9375 79.39,388.0781 Q78.7494,388.2344 78.0463,388.2344 Q75.5463,388.2344 74.2181,386.5938 Q72.9056,384.9375 72.9056,381.8125 Q72.9056,378.6875 74.2181,377.0313 Q75.5463,375.375 78.0463,375.375 Q78.7494,375.375 79.39,375.5313 Q80.0463,375.6875 80.6088,375.9844 L80.6088,378.7031 Q79.9838,378.125 79.39,377.8594 Q78.7963,377.5781 78.1713,377.5781 Q76.8275,377.5781 76.14,378.6563 Q75.4525,379.7188 75.4525,381.8125 Q75.4525,383.9063 76.14,384.9844 Q76.8275,386.0469 78.1713,386.0469 Q78.7963,386.0469 79.39,385.7813 Q79.9838,385.5 80.6088,384.9219 L80.6088,387.6406 Z " fill="#000000"/><text fill="#000000" font-family="sans-serif" font-size="14" lengthAdjust="spacing" textLength="90.7813" x="91.64" y="386.8467">Appointment</text><line style="stroke:#181818;stroke-width:0.5;" x1="63.64" x2="184.4213" y1="398" y2="398"/><line style="stroke:#181818;stroke-width:0.5;" x1="63.64" x2="184.4213" y1="406" y2="406"/></g><!--reverse link User to Client--><g class="link" data-entity-1="User" data-entity-2="Client" data-source-line="9" data-uid="lnk4" id="link_User_Client"><path codeLine="9" d="M472.1667,67.8529 C453.3167,85.6929 440.6,97.75 421.77,115.57" fill="none" id="User-backto-Client" style="stroke:#181818;stroke-width:1;"/><polygon fill="none" points="485.24,55.48,468.0424,63.4951,476.2909,72.2106,485.24,55.48" style="stroke:#181818;stroke-width:1;"/></g><!--reverse link User to Lawyer--><g class="link" data-entity-1="User" data-entity-2="Lawyer" data-source-line="10" data-uid="lnk6" id="link_User_Lawyer"><path codeLine="10" d="M460.9784,50.6759 C409.7984,70.1659 326.82,101.76 270.43,123.24" fill="none" id="User-backto-Lawyer" style="stroke:#181818;stroke-width:1;"/><polygon fill="none" points="477.8,44.27,458.8432,45.0687,463.1137,56.2831,477.8,44.27" style="stroke:#181818;stroke-width:1;"/></g><!--reverse link User to Admin--><g class="link" data-entity-1="User" data-entity-2="Admin" data-source-line="11" data-uid="lnk8" id="link_User_Admin"><path codeLine="11" d="M510.03,73.48 C510.03,91.32 510.03,97.75 510.03,115.57" fill="none" id="User-backto-Admin" style="stroke:#181818;stroke-width:1;"/><polygon fill="none" points="510.03,55.48,504.03,73.48,516.03,73.48,510.03,55.48" style="stroke:#181818;stroke-width:1;"/></g><!--link Client to Process--><g class="link" data-entity-1="Client" data-entity-2="Process" data-source-line="36" data-uid="lnk15" id="link_Client_Process"><path codeLine="36" d="M388.46,164.42 C380.46,186.31 368.57,218.8 360.57,240.66" fill="none" id="Client-Process" style="stroke:#181818;stroke-width:1;"/><text fill="#000000" font-family="sans-serif" font-size="13" lengthAdjust="spacing" textLength="52.0063" x="379.03" y="207.0669">initiates</text><text fill="#000000" font-family="sans-serif" font-size="13" lengthAdjust="spacing" textLength="8.271" x="377.5833" y="183.8838">1</text><text fill="#000000" font-family="sans-serif" font-size="13" lengthAdjust="spacing" textLength="23.0356" x="336.8526" y="229.9821">0..*</text></g><!--link Lawyer to Process--><g class="link" data-entity-1="Lawyer" data-entity-2="Process" data-source-line="37" data-uid="lnk16" id="link_Lawyer_Process"><path codeLine="37" d="M195.51,164.47 C180.17,178.13 167.67,195.63 179.03,211 C208.64,251.03 267.9,261.81 308.75,264.21" fill="none" id="Lawyer-Process" style="stroke:#181818;stroke-width:1;"/><text fill="#000000" font-family="sans-serif" font-size="13" lengthAdjust="spacing" textLength="51.0796" x="180.03" y="207.0669">handles</text><text fill="#000000" font-family="sans-serif" font-size="13" lengthAdjust="spacing" textLength="8.271" x="178.8644" y="183.9453">1</text><text fill="#000000" font-family="sans-serif" font-size="13" lengthAdjust="spacing" textLength="23.0356" x="278.0489" y="260.1205">0..*</text></g><!--reverse link Process to Document--><g class="link" data-entity-1="Process" data-entity-2="Document" data-source-line="39" data-uid="lnk17" id="link_Process_Document"><path codeLine="39" d="M352.03,301.42 C352.03,323.31 352.03,343.8 352.03,365.66" fill="none" id="Process-backto-Document" style="stroke:#181818;stroke-width:1;"/><polygon fill="#181818" points="352.03,289.42,348.03,295.42,352.03,301.42,356.03,295.42,352.03,289.42" style="stroke:#181818;stroke-width:1;"/><text fill="#000000" font-family="sans-serif" font-size="13" lengthAdjust="spacing" textLength="55.0278" x="353.03" y="332.0669">contains</text><text fill="#000000" font-family="sans-serif" font-size="13" lengthAdjust="spacing" textLength="8.271" x="343.1361" y="308.8838">1</text><text fill="#000000" font-family="sans-serif" font-size="13" lengthAdjust="spacing" textLength="23.0356" x="326.2301" y="354.9821">0..*</text></g><!--link Process to Notification--><g class="link" data-entity-1="Process" data-entity-2="Notification" data-source-line="40" data-uid="lnk18" id="link_Process_Notification"><path codeLine="40" d="M383.27,289.42 C412.45,311.31 455.77,343.8 484.92,365.66" fill="none" id="Process-Notification" style="stroke:#181818;stroke-width:1;"/><text fill="#000000" font-family="sans-serif" font-size="13" lengthAdjust="spacing" textLength="65.6665" x="444.03" y="332.0669">generates</text><text fill="#000000" font-family="sans-serif" font-size="13" lengthAdjust="spacing" textLength="8.271" x="381.6003" y="308.8838">1</text><text fill="#000000" font-family="sans-serif" font-size="13" lengthAdjust="spacing" textLength="23.0356" x="451.537" y="354.9821">0..*</text></g><!--link Process to Appointment--><g class="link" data-entity-1="Process" data-entity-2="Appointment" data-source-line="41" data-uid="lnk19" id="link_Process_Appointment"><path codeLine="41" d="M308.88,289.28 C268.34,311.15 208,343.7 167.4,365.61" fill="none" id="Process-Appointment" style="stroke:#181818;stroke-width:1;"/><text fill="#000000" font-family="sans-serif" font-size="13" lengthAdjust="spacing" textLength="65.0317" x="253.03" y="332.0669">schedules</text><text fill="#000000" font-family="sans-serif" font-size="13" lengthAdjust="spacing" textLength="24.8066" x="276.4968" y="288.9265">0..1</text><text fill="#000000" font-family="sans-serif" font-size="13" lengthAdjust="spacing" textLength="23.0356" x="152.1725" y="354.9199">0..*</text></g><!--link User to Notification--><g class="link" data-entity-1="User" data-entity-2="Notification" data-source-line="44" data-uid="lnk20" id="link_User_Notification"><path codeLine="44" d="M531.14,55.38 C543.98,71.23 559.18,93.35 566.03,116 C593.33,206.16 549.78,317.83 527.67,365.57" fill="none" id="User-Notification" style="stroke:#181818;stroke-width:1;"/><text fill="#000000" font-family="sans-serif" font-size="13" lengthAdjust="spacing" textLength="54.5645" x="575.03" y="207.0669">receives</text><text fill="#000000" font-family="sans-serif" font-size="13" lengthAdjust="spacing" textLength="8.271" x="527.3424" y="75.2338">1</text><text fill="#000000" font-family="sans-serif" font-size="13" lengthAdjust="spacing" textLength="23.0356" x="504.7074" y="354.8701">0..*</text></g><!--link Client to Chat--><g class="link" data-entity-1="Client" data-entity-2="Chat" data-source-line="47" data-uid="lnk21" id="link_Client_Chat"><path codeLine="47" d="M416.71,164.42 C424.18,173.53 432.66,184.13 440.03,194 C451.41,209.23 463.51,226.89 472.71,240.66" fill="none" id="Client-Chat" style="stroke:#181818;stroke-width:1;"/><text fill="#000000" font-family="sans-serif" font-size="13" lengthAdjust="spacing" textLength="77.1177" x="453.03" y="207.0669">participates</text><text fill="#000000" font-family="sans-serif" font-size="13" lengthAdjust="spacing" textLength="8.271" x="412.3661" y="183.8838">1</text><text fill="#000000" font-family="sans-serif" font-size="13" lengthAdjust="spacing" textLength="23.0356" x="443.1749" y="229.9821">0..*</text></g><!--link Lawyer to Chat--><g class="link" data-entity-1="Lawyer" data-entity-2="Chat" data-source-line="48" data-uid="lnk22" id="link_Lawyer_Chat"><path codeLine="48" d="M241.98,164.25 C251.81,179.79 266.75,199.44 285.03,211 C334.05,242 356.03,225.93 412.03,241 C426.28,244.83 441.89,249.48 455.24,253.59" fill="none" id="Lawyer-Chat" style="stroke:#181818;stroke-width:1;"/><text fill="#000000" font-family="sans-serif" font-size="13" lengthAdjust="spacing" textLength="77.1177" x="286.03" y="207.0669">participates</text><text fill="#000000" font-family="sans-serif" font-size="13" lengthAdjust="spacing" textLength="8.271" x="236.1942" y="184.0721">1</text><text fill="#000000" font-family="sans-serif" font-size="13" lengthAdjust="spacing" textLength="23.0356" x="424.6293" y="264.9963">0..*</text></g><!--reverse link Chat to Message--><g class="link" data-entity-1="Chat" data-entity-2="Message" data-source-line="49" data-uid="lnk23" id="link_Chat_Message"><path codeLine="49" d="M530.9592,290.328 C569.1492,311.978 622.15,342.02 663.78,365.62" fill="none" id="Chat-backto-Message" style="stroke:#181818;stroke-width:1;"/><polygon fill="#181818" points="520.52,284.41,523.7669,290.8487,530.9592,290.328,527.7123,283.8893,520.52,284.41" style="stroke:#181818;stroke-width:1;"/><text fill="#000000" font-family="sans-serif" font-size="13" lengthAdjust="spacing" textLength="55.0278" x="610.03" y="332.0669">contains</text><text fill="#000000" font-family="sans-serif" font-size="13" lengthAdjust="spacing" textLength="8.271" x="528.53" y="284.0967">1</text><text fill="#000000" font-family="sans-serif" font-size="13" lengthAdjust="spacing" textLength="23.0356" x="627.9266" y="354.9323">0..*</text></g><!--link User to Message--><g class="link" data-entity-1="User" data-entity-2="Message" data-source-line="50" data-uid="lnk24" id="link_User_Message"><path codeLine="50" d="M542.31,53.21 C554.41,62.11 567.7,73.16 578.03,85 C653.99,172.06 689.15,311.01 700.6,365.75" fill="none" id="User-Message" style="stroke:#181818;stroke-width:1;"/><text fill="#000000" font-family="sans-serif" font-size="13" lengthAdjust="spacing" textLength="38.0352" x="652.03" y="207.0669">sends</text><text fill="#000000" font-family="sans-serif" font-size="13" lengthAdjust="spacing" textLength="8.271" x="549.8196" y="53.3245">1</text><text fill="#000000" font-family="sans-serif" font-size="13" lengthAdjust="spacing" textLength="23.0356" x="673.7215" y="355.094">0..*</text></g><!--link Client to Appointment--><g class="link" data-entity-1="Client" data-entity-2="Appointment" data-source-line="53" data-uid="lnk25" id="link_Client_Appointment"><path codeLine="53" d="M360.49,148.9 C296.48,162.81 170.47,190.53 167.03,194 C120.8,240.67 119.45,325.1 121.87,365.81" fill="none" id="Client-Appointment" style="stroke:#181818;stroke-width:1;"/><text fill="#000000" font-family="sans-serif" font-size="13" lengthAdjust="spacing" textLength="65.0317" x="139.03" y="269.5669">schedules</text><text fill="#000000" font-family="sans-serif" font-size="13" lengthAdjust="spacing" textLength="8.271" x="344.5344" y="146.2556">1</text><text fill="#000000" font-family="sans-serif" font-size="13" lengthAdjust="spacing" textLength="23.0356" x="95.374" y="354.7733">0..*</text></g><!--link Lawyer to Appointment--><g class="link" data-entity-1="Lawyer" data-entity-2="Appointment" data-source-line="54" data-uid="lnk26" id="link_Lawyer_Appointment"><path codeLine="54" d="M187.51,147.48 C138.76,157.64 60.65,182.62 30.03,241 C6,286.83 55.34,337.05 91.2,365.63" fill="none" id="Lawyer-Appointment" style="stroke:#181818;stroke-width:1;"/><text fill="#000000" font-family="sans-serif" font-size="13" lengthAdjust="spacing" textLength="49.4229" x="31.03" y="269.5669">attends</text><text fill="#000000" font-family="sans-serif" font-size="13" lengthAdjust="spacing" textLength="8.271" x="171.4256" y="144.5552">1</text><text fill="#000000" font-family="sans-serif" font-size="13" lengthAdjust="spacing" textLength="23.0356" x="57.3988" y="354.9448">0..*</text></g><!--SRC=[XPDDJiCm48NtFiKe2mgLMfLj18kgtI1HX40Sm3X3CsfYH_6KYh-xuzffug24PfDayldDynl7xaXNifObg49QksIkwNNFUAUCVgPFX8KG4xWTlzpNjIabQTYO38ipi92lbckfEBI35uirVFq8uHzklcSpM1M4cgF2lJnyO1qLbbb9MeYW472l4Ge1ZmeUZzuVQwFGtRlAsgXzsLTvC4nlf2IJYTUkSXbJ6wSZjnWtgof3cbkrSzazOU5xs9mgUowyoSaxMj7iExbEm4MIBERpQT9kBGNIn2JPWKqUOs0kTLOuJ9nAHt3QaMqsARWZmMxGjeTsP2-o5BQeiVOEMjnnlHLnM2bObMEszrucFJ4BsXoW8Bt33DY4GtEf3JV3lmfdurytDIgazw3jXtZH38_qTZXBJwNWVWucHTLubaEWh_r9ydHOeY07V7UKHPrvlr5C8tCV2tBGRn-MpCS-lm00]--></g></svg>